<svg width="28" height="31" viewBox="0 0 28 31" fill="none" xmlns="http://www.w3.org/2000/svg">
<rect width="28" height="31" fill="#F5F5F5"/>
<g id="Home page" clip-path="url(#clip0_0_1)">
<rect width="1440" height="6837" transform="translate(-1180 -341)" fill="#F0FDFF"/>
<g id="Group 46513">
<path id="Back-ground" d="M-1179 -260H268L268 491H-1179L-1179 -260Z" fill="url(#paint0_linear_0_1)"/>
<g id="&#195;&#137;cran Ordi" filter="url(#filter0_d_0_1)">
<rect x="-987" y="-196" width="1117.37" height="683.844" rx="8.47624" fill="white"/>
<g id="Group 46512">
<g id="H1 ">
<g id="Group 46511">
<g id="Heading 2 &#226;&#134;&#146; Tout ce que l&#39;on attend d&#39;une" filter="url(#filter1_dddd_0_1)">
<path d="M-457.5 -52.12C-453.06 -52.12 -449.18 -51.24 -445.86 -49.48C-442.54 -47.72 -439.98 -45.24 -438.18 -42.04C-436.34 -38.88 -435.42 -35.22 -435.42 -31.06C-435.42 -26.94 -436.34 -23.28 -438.18 -20.08C-439.98 -16.88 -442.56 -14.4 -445.92 -12.64C-449.24 -10.88 -453.1 -10 -457.5 -10H-473.28V-52.12H-457.5ZM-458.16 -18.88C-454.28 -18.88 -451.26 -19.94 -449.1 -22.06C-446.94 -24.18 -445.86 -27.18 -445.86 -31.06C-445.86 -34.94 -446.94 -37.96 -449.1 -40.12C-451.26 -42.28 -454.28 -43.36 -458.16 -43.36H-463.02V-18.88H-458.16ZM-398.126 -27.28C-398.126 -26.32 -398.186 -25.32 -398.306 -24.28H-421.526C-421.366 -22.2 -420.706 -20.6 -419.546 -19.48C-418.346 -18.4 -416.886 -17.86 -415.166 -17.86C-412.606 -17.86 -410.826 -18.94 -409.826 -21.1H-398.906C-399.466 -18.9 -400.486 -16.92 -401.966 -15.16C-403.406 -13.4 -405.226 -12.02 -407.426 -11.02C-409.626 -10.02 -412.086 -9.52 -414.806 -9.52C-418.086 -9.52 -421.006 -10.22 -423.566 -11.62C-426.126 -13.02 -428.126 -15.02 -429.566 -17.62C-431.006 -20.22 -431.726 -23.26 -431.726 -26.74C-431.726 -30.22 -431.026 -33.26 -429.626 -35.86C-428.186 -38.46 -426.186 -40.46 -423.626 -41.86C-421.066 -43.26 -418.126 -43.96 -414.806 -43.96C-411.566 -43.96 -408.686 -43.28 -406.166 -41.92C-403.646 -40.56 -401.686 -38.62 -400.286 -36.1C-398.846 -33.58 -398.126 -30.64 -398.126 -27.28ZM-408.626 -29.98C-408.626 -31.74 -409.226 -33.14 -410.426 -34.18C-411.626 -35.22 -413.126 -35.74 -414.926 -35.74C-416.646 -35.74 -418.106 -35.24 -419.306 -34.24C-420.466 -33.24 -421.186 -31.82 -421.466 -29.98H-408.626ZM-407.906 -52.06L-422.366 -46V-53.08L-407.906 -60.04V-52.06ZM-394.754 -26.74C-394.754 -30.22 -394.054 -33.26 -392.654 -35.86C-391.214 -38.46 -389.234 -40.46 -386.714 -41.86C-384.154 -43.26 -381.234 -43.96 -377.954 -43.96C-373.754 -43.96 -370.254 -42.86 -367.454 -40.66C-364.614 -38.46 -362.754 -35.36 -361.874 -31.36H-372.794C-373.714 -33.92 -375.494 -35.2 -378.134 -35.2C-380.014 -35.2 -381.514 -34.46 -382.634 -32.98C-383.754 -31.54 -384.314 -29.46 -384.314 -26.74C-384.314 -24.02 -383.754 -21.92 -382.634 -20.44C-381.514 -19 -380.014 -18.28 -378.134 -18.28C-375.494 -18.28 -373.714 -19.56 -372.794 -22.12H-361.874C-362.754 -18.2 -364.614 -15.12 -367.454 -12.88C-370.294 -10.64 -373.794 -9.52 -377.954 -9.52C-381.234 -9.52 -384.154 -10.22 -386.714 -11.62C-389.234 -13.02 -391.214 -15.02 -392.654 -17.62C-394.054 -20.22 -394.754 -23.26 -394.754 -26.74ZM-323.325 -43.48V-10H-333.585V-14.56C-334.625 -13.08 -336.045 -11.88 -337.845 -10.96C-339.605 -10.08 -341.565 -9.64 -343.725 -9.64C-346.285 -9.64 -348.545 -10.2 -350.505 -11.32C-352.465 -12.48 -353.985 -14.14 -355.065 -16.3C-356.145 -18.46 -356.685 -21 -356.685 -23.92V-43.48H-346.485V-25.3C-346.485 -23.06 -345.905 -21.32 -344.745 -20.08C-343.585 -18.84 -342.025 -18.22 -340.065 -18.22C-338.065 -18.22 -336.485 -18.84 -335.325 -20.08C-334.165 -21.32 -333.585 -23.06 -333.585 -25.3V-43.48H-323.325ZM-305.696 -38.74C-304.696 -40.3 -303.316 -41.56 -301.556 -42.52C-299.796 -43.48 -297.736 -43.96 -295.376 -43.96C-292.616 -43.96 -290.116 -43.26 -287.876 -41.86C-285.636 -40.46 -283.876 -38.46 -282.596 -35.86C-281.276 -33.26 -280.616 -30.24 -280.616 -26.8C-280.616 -23.36 -281.276 -20.32 -282.596 -17.68C-283.876 -15.08 -285.636 -13.06 -287.876 -11.62C-290.116 -10.22 -292.616 -9.52 -295.376 -9.52C-297.696 -9.52 -299.756 -10 -301.556 -10.96C-303.316 -11.92 -304.696 -13.16 -305.696 -14.68V5.96H-315.956V-43.48H-305.696V-38.74ZM-291.056 -26.8C-291.056 -29.36 -291.776 -31.36 -293.216 -32.8C-294.616 -34.28 -296.356 -35.02 -298.436 -35.02C-300.476 -35.02 -302.216 -34.28 -303.656 -32.8C-305.056 -31.32 -305.756 -29.3 -305.756 -26.74C-305.756 -24.18 -305.056 -22.16 -303.656 -20.68C-302.216 -19.2 -300.476 -18.46 -298.436 -18.46C-296.396 -18.46 -294.656 -19.2 -293.216 -20.68C-291.776 -22.2 -291.056 -24.24 -291.056 -26.8ZM-264.973 -54.4V-10H-275.233V-54.4H-264.973ZM-225.978 -27.28C-225.978 -26.32 -226.038 -25.32 -226.158 -24.28H-249.378C-249.218 -22.2 -248.558 -20.6 -247.398 -19.48C-246.198 -18.4 -244.738 -17.86 -243.018 -17.86C-240.458 -17.86 -238.678 -18.94 -237.678 -21.1H-226.758C-227.318 -18.9 -228.338 -16.92 -229.818 -15.16C-231.258 -13.4 -233.078 -12.02 -235.278 -11.02C-237.478 -10.02 -239.938 -9.52 -242.658 -9.52C-245.938 -9.52 -248.858 -10.22 -251.418 -11.62C-253.978 -13.02 -255.978 -15.02 -257.418 -17.62C-258.858 -20.22 -259.578 -23.26 -259.578 -26.74C-259.578 -30.22 -258.878 -33.26 -257.478 -35.86C-256.038 -38.46 -254.038 -40.46 -251.478 -41.86C-248.918 -43.26 -245.978 -43.96 -242.658 -43.96C-239.418 -43.96 -236.538 -43.28 -234.018 -41.92C-231.498 -40.56 -229.538 -38.62 -228.138 -36.1C-226.698 -33.58 -225.978 -30.64 -225.978 -27.28ZM-236.478 -29.98C-236.478 -31.74 -237.078 -33.14 -238.278 -34.18C-239.478 -35.22 -240.978 -35.74 -242.778 -35.74C-244.498 -35.74 -245.958 -35.24 -247.158 -34.24C-248.318 -33.24 -249.038 -31.82 -249.318 -29.98H-236.478ZM-210.965 -18.46H-196.445V-10H-222.425V-18.16L-208.505 -35.02H-222.305V-43.48H-196.745V-35.32L-210.965 -18.46ZM-163.025 -19.6L-155.765 -43.48H-144.845L-156.725 -10H-169.385L-181.265 -43.48H-170.285L-163.025 -19.6ZM-125.286 -9.52C-128.566 -9.52 -131.526 -10.22 -134.166 -11.62C-136.766 -13.02 -138.826 -15.02 -140.346 -17.62C-141.826 -20.22 -142.566 -23.26 -142.566 -26.74C-142.566 -30.18 -141.806 -33.2 -140.286 -35.8C-138.766 -38.44 -136.686 -40.46 -134.046 -41.86C-131.406 -43.26 -128.446 -43.96 -125.166 -43.96C-121.886 -43.96 -118.926 -43.26 -116.286 -41.86C-113.646 -40.46 -111.566 -38.44 -110.046 -35.8C-108.526 -33.2 -107.766 -30.18 -107.766 -26.74C-107.766 -23.3 -108.546 -20.26 -110.106 -17.62C-111.626 -15.02 -113.726 -13.02 -116.406 -11.62C-119.046 -10.22 -122.006 -9.52 -125.286 -9.52ZM-125.286 -18.4C-123.326 -18.4 -121.666 -19.12 -120.306 -20.56C-118.906 -22 -118.206 -24.06 -118.206 -26.74C-118.206 -29.42 -118.886 -31.48 -120.246 -32.92C-121.566 -34.36 -123.206 -35.08 -125.166 -35.08C-127.166 -35.08 -128.826 -34.36 -130.146 -32.92C-131.466 -31.52 -132.126 -29.46 -132.126 -26.74C-132.126 -24.06 -131.486 -22 -130.206 -20.56C-128.886 -19.12 -127.246 -18.4 -125.286 -18.4ZM-83.663 -18.7V-10H-88.883C-92.603 -10 -95.503 -10.9 -97.583 -12.7C-99.663 -14.54 -100.703 -17.52 -100.703 -21.64V-34.96H-104.783V-43.48H-100.703V-51.64H-90.443V-43.48H-83.723V-34.96H-90.443V-21.52C-90.443 -20.52 -90.203 -19.8 -89.723 -19.36C-89.243 -18.92 -88.443 -18.7 -87.323 -18.7H-83.663ZM-67.688 -37.9C-66.488 -39.74 -64.988 -41.18 -63.188 -42.22C-61.388 -43.3 -59.388 -43.84 -57.188 -43.84V-32.98H-60.008C-62.568 -32.98 -64.488 -32.42 -65.768 -31.3C-67.048 -30.22 -67.688 -28.3 -67.688 -25.54V-10H-77.948V-43.48H-67.688V-37.9ZM-20.7239 -27.28C-20.7239 -26.32 -20.7839 -25.32 -20.9039 -24.28H-44.1239C-43.9639 -22.2 -43.3039 -20.6 -42.1439 -19.48C-40.9439 -18.4 -39.4839 -17.86 -37.7639 -17.86C-35.2039 -17.86 -33.4239 -18.94 -32.4239 -21.1H-21.5039C-22.0639 -18.9 -23.0839 -16.92 -24.5639 -15.16C-26.0039 -13.4 -27.8239 -12.02 -30.0239 -11.02C-32.2239 -10.02 -34.6839 -9.52 -37.4039 -9.52C-40.6839 -9.52 -43.6039 -10.22 -46.1639 -11.62C-48.7239 -13.02 -50.7239 -15.02 -52.1639 -17.62C-53.6039 -20.22 -54.3239 -23.26 -54.3239 -26.74C-54.3239 -30.22 -53.6239 -33.26 -52.2239 -35.86C-50.7839 -38.46 -48.7839 -40.46 -46.2239 -41.86C-43.6639 -43.26 -40.7239 -43.96 -37.4039 -43.96C-34.1639 -43.96 -31.2839 -43.28 -28.7639 -41.92C-26.2439 -40.56 -24.2839 -38.62 -22.8839 -36.1C-21.4439 -33.58 -20.7239 -30.64 -20.7239 -27.28ZM-31.2239 -29.98C-31.2239 -31.74 -31.8239 -33.14 -33.0239 -34.18C-34.2239 -35.22 -35.7239 -35.74 -37.5239 -35.74C-39.2439 -35.74 -40.7039 -35.24 -41.9039 -34.24C-43.0639 -33.24 -43.7839 -31.82 -44.0639 -29.98H-31.2239ZM-468.12 15.04C-469.92 15.04 -471.4 14.52 -472.56 13.48C-473.68 12.4 -474.24 11.08 -474.24 9.52C-474.24 7.92 -473.68 6.6 -472.56 5.56C-471.4 4.48 -469.92 3.94 -468.12 3.94C-466.36 3.94 -464.92 4.48 -463.8 5.56C-462.64 6.6 -462.06 7.92 -462.06 9.52C-462.06 11.08 -462.64 12.4 -463.8 13.48C-464.92 14.52 -466.36 15.04 -468.12 15.04ZM-463.02 18.52V52H-473.28V18.52H-463.02ZM-412.865 18.16C-408.705 18.16 -405.405 19.42 -402.965 21.94C-400.485 24.46 -399.245 27.96 -399.245 32.44V52H-409.445V33.82C-409.445 31.66 -410.025 30 -411.185 28.84C-412.305 27.64 -413.865 27.04 -415.865 27.04C-417.865 27.04 -419.445 27.64 -420.605 28.84C-421.725 30 -422.285 31.66 -422.285 33.82V52H-432.485V33.82C-432.485 31.66 -433.065 30 -434.225 28.84C-435.345 27.64 -436.905 27.04 -438.905 27.04C-440.905 27.04 -442.485 27.64 -443.645 28.84C-444.765 30 -445.325 31.66 -445.325 33.82V52H-455.585V18.52H-445.325V22.72C-444.285 21.32 -442.925 20.22 -441.245 19.42C-439.565 18.58 -437.665 18.16 -435.545 18.16C-433.025 18.16 -430.785 18.7 -428.825 19.78C-426.825 20.86 -425.265 22.4 -424.145 24.4C-422.985 22.56 -421.405 21.06 -419.405 19.9C-417.405 18.74 -415.225 18.16 -412.865 18.16ZM-381.809 23.26C-380.809 21.7 -379.429 20.44 -377.669 19.48C-375.909 18.52 -373.849 18.04 -371.489 18.04C-368.729 18.04 -366.229 18.74 -363.989 20.14C-361.749 21.54 -359.989 23.54 -358.709 26.14C-357.389 28.74 -356.729 31.76 -356.729 35.2C-356.729 38.64 -357.389 41.68 -358.709 44.32C-359.989 46.92 -361.749 48.94 -363.989 50.38C-366.229 51.78 -368.729 52.48 -371.489 52.48C-373.809 52.48 -375.869 52 -377.669 51.04C-379.429 50.08 -380.809 48.84 -381.809 47.32V67.96H-392.069V18.52H-381.809V23.26ZM-367.169 35.2C-367.169 32.64 -367.889 30.64 -369.329 29.2C-370.729 27.72 -372.469 26.98 -374.549 26.98C-376.589 26.98 -378.329 27.72 -379.769 29.2C-381.169 30.68 -381.869 32.7 -381.869 35.26C-381.869 37.82 -381.169 39.84 -379.769 41.32C-378.329 42.8 -376.589 43.54 -374.549 43.54C-372.509 43.54 -370.769 42.8 -369.329 41.32C-367.889 39.8 -367.169 37.76 -367.169 35.2ZM-353.386 35.2C-353.386 31.76 -352.746 28.74 -351.466 26.14C-350.146 23.54 -348.366 21.54 -346.126 20.14C-343.886 18.74 -341.386 18.04 -338.626 18.04C-336.266 18.04 -334.206 18.52 -332.446 19.48C-330.646 20.44 -329.266 21.7 -328.306 23.26V18.52H-318.046V52H-328.306V47.26C-329.306 48.82 -330.706 50.08 -332.506 51.04C-334.266 52 -336.326 52.48 -338.686 52.48C-341.406 52.48 -343.886 51.78 -346.126 50.38C-348.366 48.94 -350.146 46.92 -351.466 44.32C-352.746 41.68 -353.386 38.64 -353.386 35.2ZM-328.306 35.26C-328.306 32.7 -329.026 30.68 -330.466 29.2C-331.866 27.72 -333.586 26.98 -335.626 26.98C-337.666 26.98 -339.406 27.72 -340.846 29.2C-342.246 30.64 -342.946 32.64 -342.946 35.2C-342.946 37.76 -342.246 39.8 -340.846 41.32C-339.406 42.8 -337.666 43.54 -335.626 43.54C-333.586 43.54 -331.866 42.8 -330.466 41.32C-329.026 39.84 -328.306 37.82 -328.306 35.26ZM-312.664 35.26C-312.664 31.78 -311.964 28.74 -310.564 26.14C-309.124 23.54 -307.144 21.54 -304.624 20.14C-302.064 18.74 -299.144 18.04 -295.864 18.04C-291.664 18.04 -288.164 19.14 -285.364 21.34C-282.524 23.54 -280.664 26.64 -279.784 30.64H-290.704C-291.624 28.08 -293.404 26.8 -296.044 26.8C-297.924 26.8 -299.424 27.54 -300.544 29.02C-301.664 30.46 -302.224 32.54 -302.224 35.26C-302.224 37.98 -301.664 40.08 -300.544 41.56C-299.424 43 -297.924 43.72 -296.044 43.72C-293.404 43.72 -291.624 42.44 -290.704 39.88H-279.784C-280.664 43.8 -282.524 46.88 -285.364 49.12C-288.204 51.36 -291.704 52.48 -295.864 52.48C-299.144 52.48 -302.064 51.78 -304.624 50.38C-307.144 48.98 -309.124 46.98 -310.564 44.38C-311.964 41.78 -312.664 38.74 -312.664 35.26ZM-255.636 43.3V52H-260.856C-264.576 52 -267.476 51.1 -269.556 49.3C-271.636 47.46 -272.676 44.48 -272.676 40.36V27.04H-276.756V18.52H-272.676V10.36H-262.416V18.52H-255.696V27.04H-262.416V40.48C-262.416 41.48 -262.176 42.2 -261.696 42.64C-261.216 43.08 -260.416 43.3 -259.296 43.3H-255.636ZM-205.646 34.72C-205.646 35.68 -205.706 36.68 -205.826 37.72H-229.046C-228.886 39.8 -228.226 41.4 -227.066 42.52C-225.866 43.6 -224.406 44.14 -222.686 44.14C-220.126 44.14 -218.346 43.06 -217.346 40.9H-206.426C-206.986 43.1 -208.006 45.08 -209.486 46.84C-210.926 48.6 -212.746 49.98 -214.946 50.98C-217.146 51.98 -219.606 52.48 -222.326 52.48C-225.606 52.48 -228.526 51.78 -231.086 50.38C-233.646 48.98 -235.646 46.98 -237.086 44.38C-238.526 41.78 -239.246 38.74 -239.246 35.26C-239.246 31.78 -238.546 28.74 -237.146 26.14C-235.706 23.54 -233.706 21.54 -231.146 20.14C-228.586 18.74 -225.646 18.04 -222.326 18.04C-219.086 18.04 -216.206 18.72 -213.686 20.08C-211.166 21.44 -209.206 23.38 -207.806 25.9C-206.366 28.42 -205.646 31.36 -205.646 34.72ZM-216.146 32.02C-216.146 30.26 -216.746 28.86 -217.946 27.82C-219.146 26.78 -220.646 26.26 -222.446 26.26C-224.166 26.26 -225.626 26.76 -226.826 27.76C-227.986 28.76 -228.706 30.18 -228.986 32.02H-216.146ZM-179.833 18.16C-175.913 18.16 -172.793 19.44 -170.473 22C-168.113 24.52 -166.933 28 -166.933 32.44V52H-177.133V33.82C-177.133 31.58 -177.713 29.84 -178.873 28.6C-180.033 27.36 -181.593 26.74 -183.553 26.74C-185.513 26.74 -187.073 27.36 -188.233 28.6C-189.393 29.84 -189.973 31.58 -189.973 33.82V52H-200.233V18.52H-189.973V22.96C-188.933 21.48 -187.533 20.32 -185.773 19.48C-184.013 18.6 -182.033 18.16 -179.833 18.16Z" fill="#1A9DBA"/>
<path d="M-136.829 7.6V52H-147.089V7.6H-136.829ZM-124.233 15.04C-126.033 15.04 -127.513 14.52 -128.673 13.48C-129.793 12.4 -130.353 11.08 -130.353 9.52C-130.353 7.92 -129.793 6.6 -128.673 5.56C-127.513 4.48 -126.033 3.94 -124.233 3.94C-122.473 3.94 -121.033 4.48 -119.913 5.56C-118.753 6.6 -118.173 7.92 -118.173 9.52C-118.173 11.08 -118.753 12.4 -119.913 13.48C-121.033 14.52 -122.473 15.04 -124.233 15.04ZM-119.133 18.52V52H-129.393V18.52H-119.133ZM-98.978 18.04C-96.618 18.04 -94.558 18.52 -92.798 19.48C-90.998 20.44 -89.618 21.7 -88.658 23.26V18.52H-78.398V51.94C-78.398 55.02 -79.018 57.8 -80.258 60.28C-81.458 62.8 -83.318 64.8 -85.838 66.28C-88.318 67.76 -91.418 68.5 -95.138 68.5C-100.098 68.5 -104.118 67.32 -107.198 64.96C-110.278 62.64 -112.038 59.48 -112.478 55.48H-102.338C-102.018 56.76 -101.258 57.76 -100.058 58.48C-98.858 59.24 -97.378 59.62 -95.618 59.62C-93.498 59.62 -91.818 59 -90.578 57.76C-89.298 56.56 -88.658 54.62 -88.658 51.94V47.2C-89.658 48.76 -91.038 50.04 -92.798 51.04C-94.558 52 -96.618 52.48 -98.978 52.48C-101.738 52.48 -104.238 51.78 -106.478 50.38C-108.718 48.94 -110.498 46.92 -111.818 44.32C-113.098 41.68 -113.738 38.64 -113.738 35.2C-113.738 31.76 -113.098 28.74 -111.818 26.14C-110.498 23.54 -108.718 21.54 -106.478 20.14C-104.238 18.74 -101.738 18.04 -98.978 18.04ZM-88.658 35.26C-88.658 32.7 -89.378 30.68 -90.818 29.2C-92.218 27.72 -93.938 26.98 -95.978 26.98C-98.018 26.98 -99.758 27.72 -101.198 29.2C-102.598 30.64 -103.298 32.64 -103.298 35.2C-103.298 37.76 -102.598 39.8 -101.198 41.32C-99.758 42.8 -98.018 43.54 -95.978 43.54C-93.938 43.54 -92.218 42.8 -90.818 41.32C-89.378 39.84 -88.658 37.82 -88.658 35.26ZM-50.5753 18.16C-46.6553 18.16 -43.5353 19.44 -41.2153 22C-38.8553 24.52 -37.6753 28 -37.6753 32.44V52H-47.8753V33.82C-47.8753 31.58 -48.4553 29.84 -49.6153 28.6C-50.7753 27.36 -52.3353 26.74 -54.2953 26.74C-56.2553 26.74 -57.8153 27.36 -58.9753 28.6C-60.1353 29.84 -60.7153 31.58 -60.7153 33.82V52H-70.9753V18.52H-60.7153V22.96C-59.6753 21.48 -58.2753 20.32 -56.5153 19.48C-54.7553 18.6 -52.7753 18.16 -50.5753 18.16ZM1.01437 34.72C1.01437 35.68 0.954376 36.68 0.834377 37.72H-22.3856C-22.2256 39.8 -21.5656 41.4 -20.4056 42.52C-19.2056 43.6 -17.7456 44.14 -16.0256 44.14C-13.4656 44.14 -11.6856 43.06 -10.6856 40.9H0.234378C-0.325622 43.1 -1.34562 45.08 -2.82562 46.84C-4.26562 48.6 -6.08562 49.98 -8.28562 50.98C-10.4856 51.98 -12.9456 52.48 -15.6656 52.48C-18.9456 52.48 -21.8656 51.78 -24.4256 50.38C-26.9856 48.98 -28.9856 46.98 -30.4256 44.38C-31.8656 41.78 -32.5856 38.74 -32.5856 35.26C-32.5856 31.78 -31.8856 28.74 -30.4856 26.14C-29.0456 23.54 -27.0456 21.54 -24.4856 20.14C-21.9256 18.74 -18.9856 18.04 -15.6656 18.04C-12.4256 18.04 -9.54562 18.72 -7.02562 20.08C-4.50562 21.44 -2.54562 23.38 -1.14562 25.9C0.294376 28.42 1.01437 31.36 1.01437 34.72ZM-9.48562 32.02C-9.48562 30.26 -10.0856 28.86 -11.2856 27.82C-12.4856 26.78 -13.9856 26.26 -15.7856 26.26C-17.5056 26.26 -18.9656 26.76 -20.1656 27.76C-21.3256 28.76 -22.0456 30.18 -22.3256 32.02H-9.48562Z" fill="#FF9900"/>
</g>
</g>
<g id="Group 46284">
<path id="Polygon 16" d="M8.33752 26.3188C8.50713 26.1501 11.4345 18.0073 16.3051 15.3394C20.3747 12.6541 23.028 15.3322 23.7855 16.6913C23.9666 17.0163 24.1016 17.3336 24.2005 17.6378C24.8138 19.5237 24.0329 21.7212 22.4592 22.9834C22.119 23.2563 21.723 23.4984 21.2661 23.6726C19.134 24.4856 18.8686 24.3884 16.6607 24.4972C14.4528 24.6059 13.6 24.7798 11.6101 25.1854C9.62008 25.5911 8.16791 26.4876 8.33752 26.3188Z" fill="#CB6100"/>
<path id="Polygon 18" d="M6.41808 19.0043C6.45446 18.7715 3.92074 10.5951 6.28152 5.64283C7.97837 1.14232 11.7616 1.72973 13.2011 2.37022C13.5475 2.52435 13.8512 2.69945 14.117 2.88523C15.7456 4.02333 16.4536 6.23043 15.9155 8.16947C15.8026 8.57618 15.6276 8.98996 15.3656 9.38586C14.1176 11.2715 13.8424 11.3485 12.107 12.7182C10.3715 14.0879 9.78092 14.7218 8.4027 16.201C7.02449 17.6801 6.3817 19.237 6.41808 19.0043Z" fill="#CB6100"/>
</g>
</g>
</g>
</g>
</g>
</g>
<defs>
<filter id="filter0_d_0_1" x="-1030.22" y="-210.785" width="1203.8" height="770.277" filterUnits="userSpaceOnUse" color-interpolation-filters="sRGB">
<feFlood flood-opacity="0" result="BackgroundImageFix"/>
<feColorMatrix in="SourceAlpha" type="matrix" values="0 0 0 0 0 0 0 0 0 0 0 0 0 0 0 0 0 0 127 0" result="hardAlpha"/>
<feMorphology radius="13.6473" operator="erode" in="SourceAlpha" result="effect1_dropShadow_0_1"/>
<feOffset dy="28.4318"/>
<feGaussianBlur stdDeviation="28.4318"/>
<feColorMatrix type="matrix" values="0 0 0 0 0 0 0 0 0 0 0 0 0 0 0 0 0 0 0.25 0"/>
<feBlend mode="normal" in2="BackgroundImageFix" result="effect1_dropShadow_0_1"/>
<feBlend mode="normal" in="SourceGraphic" in2="effect1_dropShadow_0_1" result="shape"/>
</filter>
<filter id="filter1_dddd_0_1" x="-489.24" y="-63.04" width="505.255" height="183.54" filterUnits="userSpaceOnUse" color-interpolation-filters="sRGB">
<feFlood flood-opacity="0" result="BackgroundImageFix"/>
<feColorMatrix in="SourceAlpha" type="matrix" values="0 0 0 0 0 0 0 0 0 0 0 0 0 0 0 0 0 0 127 0" result="hardAlpha"/>
<feOffset dy="2"/>
<feGaussianBlur stdDeviation="2.5"/>
<feColorMatrix type="matrix" values="0 0 0 0 0 0 0 0 0 0.47451 0 0 0 0 0.6 0 0 0 0.05 0"/>
<feBlend mode="normal" in2="BackgroundImageFix" result="effect1_dropShadow_0_1"/>
<feColorMatrix in="SourceAlpha" type="matrix" values="0 0 0 0 0 0 0 0 0 0 0 0 0 0 0 0 0 0 127 0" result="hardAlpha"/>
<feOffset dy="9"/>
<feGaussianBlur stdDeviation="4.5"/>
<feColorMatrix type="matrix" values="0 0 0 0 0 0 0 0 0 0.47451 0 0 0 0 0.6 0 0 0 0.04 0"/>
<feBlend mode="normal" in2="effect1_dropShadow_0_1" result="effect2_dropShadow_0_1"/>
<feColorMatrix in="SourceAlpha" type="matrix" values="0 0 0 0 0 0 0 0 0 0 0 0 0 0 0 0 0 0 127 0" result="hardAlpha"/>
<feOffset dy="21"/>
<feGaussianBlur stdDeviation="6.5"/>
<feColorMatrix type="matrix" values="0 0 0 0 0 0 0 0 0 0.47451 0 0 0 0 0.6 0 0 0 0.03 0"/>
<feBlend mode="normal" in2="effect2_dropShadow_0_1" result="effect3_dropShadow_0_1"/>
<feColorMatrix in="SourceAlpha" type="matrix" values="0 0 0 0 0 0 0 0 0 0 0 0 0 0 0 0 0 0 127 0" result="hardAlpha"/>
<feOffset dy="37"/>
<feGaussianBlur stdDeviation="7.5"/>
<feColorMatrix type="matrix" values="0 0 0 0 0 0 0 0 0 0.47451 0 0 0 0 0.6 0 0 0 0.01 0"/>
<feBlend mode="normal" in2="effect3_dropShadow_0_1" result="effect4_dropShadow_0_1"/>
<feBlend mode="normal" in="SourceGraphic" in2="effect4_dropShadow_0_1" result="shape"/>
</filter>
<linearGradient id="paint0_linear_0_1" x1="44" y1="48.5" x2="-161" y2="491" gradientUnits="userSpaceOnUse">
<stop stop-color="white"/>
<stop offset="0.738367" stop-color="#F0FFFD"/>
</linearGradient>
<clipPath id="clip0_0_1">
<rect width="1440" height="6837" fill="white" transform="translate(-1180 -341)"/>
</clipPath>
</defs>
</svg>
