<svg width="549" height="336" viewBox="0 0 549 336" fill="none" xmlns="http://www.w3.org/2000/svg">
<g filter="url(#filter0_dddddd_507_7856)">
<path d="M237.031 147.23H210.851C208.131 147.23 206.148 146.607 204.901 145.36C203.655 144.113 203.031 142.13 203.031 139.41V118.84H176.001C164.328 118.84 155.941 115.553 150.841 108.98C145.855 102.407 143.361 94.02 143.361 83.82V29.25C143.361 27.7767 143.531 26.53 143.871 25.51C144.325 24.49 144.948 23.64 145.741 22.96L167.671 4.43C168.238 3.97666 168.975 3.63666 169.881 3.40999C170.901 3.06999 171.978 2.9 173.111 2.9H199.461C202.181 2.9 204.165 3.52333 205.411 4.76999C206.658 6.01666 207.281 8 207.281 10.72V21.43L227.341 4.43C227.908 3.97666 228.645 3.63666 229.551 3.40999C230.571 3.06999 231.648 2.9 232.781 2.9H258.961C261.681 2.9 263.665 3.52333 264.911 4.76999C266.158 6.01666 266.781 8 266.781 10.72V120.88C266.781 122.353 266.555 123.6 266.101 124.62C265.761 125.64 265.195 126.49 264.401 127.17L242.301 145.53C241.848 145.983 241.111 146.38 240.091 146.72C239.185 147.06 238.165 147.23 237.031 147.23ZM226.661 98.61V120.88C226.661 123.033 227.115 124.62 228.021 125.64C229.041 126.547 230.628 127 232.781 127H258.961C261.115 127 262.645 126.547 263.551 125.64C264.571 124.62 265.081 123.033 265.081 120.88V10.72C265.081 8.56666 264.571 7.03666 263.551 6.13C262.645 5.11 261.115 4.6 258.961 4.6H232.781C230.628 4.6 229.041 5.11 228.021 6.13C227.115 7.03666 226.661 8.56666 226.661 10.72V63.08H210.851C209.265 63.08 207.961 62.57 206.941 61.55C206.035 60.53 205.581 59.1133 205.581 57.3V10.72C205.581 8.56666 205.071 7.03666 204.051 6.13C203.145 5.11 201.615 4.6 199.461 4.6H173.111C170.958 4.6 169.371 5.11 168.351 6.13C167.445 7.03666 166.991 8.56666 166.991 10.72V70.39C166.991 80.0233 169.371 87.1633 174.131 91.81C179.005 96.3433 186.938 98.61 197.931 98.61H226.661ZM245.021 111.7V81.61H204.391C197.931 81.61 193.171 80.1367 190.111 77.19C187.051 74.13 185.521 69.6533 185.521 63.76V19.9H187.221V63.76C187.221 69.2 188.638 73.28 191.471 76C194.305 78.6067 198.611 79.91 204.391 79.91H245.021V19.9H246.721V111.7H245.021ZM376.872 139.24C373.019 142.527 367.579 145.077 360.552 146.89C353.639 148.817 344.686 149.78 333.692 149.78C322.812 149.78 313.859 148.59 306.832 146.21C299.806 143.943 294.309 140.883 290.342 137.03C286.376 133.177 283.656 128.757 282.182 123.77C280.709 118.783 279.972 113.627 279.972 108.3V55.43C279.972 50.1033 280.709 45.23 282.182 40.81C283.656 36.39 286.319 32.5933 290.172 29.42L312.272 10.89C316.126 7.60333 321.509 5.05333 328.422 3.23999C335.449 1.31332 344.516 0.349989 355.622 0.349989C366.502 0.349989 375.456 1.25666 382.482 3.06999C389.509 4.88332 394.949 7.43333 398.802 10.72C402.769 13.8933 405.489 17.7467 406.962 22.28C408.436 26.7 409.172 31.5733 409.172 36.9V94.87C409.172 100.083 408.436 104.957 406.962 109.49C405.489 113.91 402.826 117.707 398.972 120.88L376.872 139.24ZM407.472 94.87V36.9C407.472 31.6867 406.736 26.9833 405.262 22.79C403.789 18.4833 401.126 14.8 397.272 11.74C393.419 8.67999 388.092 6.29999 381.292 4.6C374.606 2.9 366.049 2.05 355.622 2.05C345.196 2.05 336.582 2.9 329.782 4.6C323.096 6.29999 317.826 8.67999 313.972 11.74C310.119 14.8 307.399 18.4833 305.812 22.79C304.339 26.9833 303.602 31.6867 303.602 36.9V94.87C303.602 100.083 304.339 104.843 305.812 109.15C307.399 113.343 310.119 116.97 313.972 120.03C317.826 122.977 323.096 125.3 329.782 127C336.582 128.7 345.196 129.55 355.622 129.55C366.049 129.55 374.606 128.7 381.292 127C388.092 125.3 393.419 122.977 397.272 120.03C401.126 116.97 403.789 113.343 405.262 109.15C406.736 104.843 407.472 100.083 407.472 94.87ZM321.962 90.96V40.81C321.962 37.41 322.472 34.2933 323.492 31.46C324.512 28.6267 326.269 26.2467 328.762 24.32C331.256 22.28 334.656 20.6933 338.962 19.56C343.382 18.4267 348.879 17.86 355.452 17.86C368.599 17.86 377.496 20.0133 382.142 24.32C386.902 28.6267 389.282 34.1233 389.282 40.81V90.96C389.282 97.76 386.902 103.313 382.142 107.62C377.496 111.813 368.599 113.91 355.452 113.91C348.879 113.91 343.382 113.343 338.962 112.21C334.656 111.077 331.256 109.547 328.762 107.62C326.269 105.58 324.512 103.143 323.492 100.31C322.472 97.4767 321.962 94.36 321.962 90.96ZM355.452 19.56C343.326 19.56 334.996 21.4867 330.462 25.34C325.929 29.1933 323.662 34.35 323.662 40.81V90.96C323.662 97.42 325.929 102.577 330.462 106.43C334.996 110.283 343.326 112.21 355.452 112.21C367.579 112.21 375.966 110.283 380.612 106.43C385.259 102.577 387.582 97.42 387.582 90.96V40.81C387.582 34.4633 385.259 29.3633 380.612 25.51C375.966 21.5433 367.579 19.56 355.452 19.56ZM342.022 88.75V43.02C342.022 40.8667 342.816 39.0533 344.402 37.58C346.102 35.9933 349.842 35.2 355.622 35.2C361.402 35.2 365.086 35.9933 366.672 37.58C368.372 39.0533 369.222 40.8667 369.222 43.02V88.75C369.222 91.0167 368.372 92.9433 366.672 94.53C365.086 96.0033 361.402 96.74 355.622 96.74C349.842 96.74 346.102 96.0033 344.402 94.53C342.816 92.9433 342.022 91.0167 342.022 88.75ZM343.722 88.75C343.722 89.5433 343.836 90.3367 344.062 91.13C344.289 91.9233 344.799 92.5467 345.592 93V61.55C345.592 60.7567 345.479 59.9633 345.252 59.17C345.026 58.3767 344.516 57.7533 343.722 57.3V88.75ZM515.108 147.23H488.928C486.208 147.23 484.224 146.607 482.978 145.36C481.731 144.113 481.108 142.13 481.108 139.41V118.84H454.078C442.404 118.84 434.018 115.553 428.918 108.98C423.931 102.407 421.438 94.02 421.438 83.82V29.25C421.438 27.7767 421.608 26.53 421.948 25.51C422.401 24.49 423.024 23.64 423.818 22.96L445.748 4.43C446.314 3.97666 447.051 3.63666 447.958 3.40999C448.978 3.06999 450.054 2.9 451.188 2.9H477.538C480.258 2.9 482.241 3.52333 483.488 4.76999C484.734 6.01666 485.358 8 485.358 10.72V21.43L505.418 4.43C505.984 3.97666 506.721 3.63666 507.628 3.40999C508.648 3.06999 509.724 2.9 510.858 2.9H537.038C539.758 2.9 541.741 3.52333 542.988 4.76999C544.234 6.01666 544.858 8 544.858 10.72V120.88C544.858 122.353 544.631 123.6 544.178 124.62C543.838 125.64 543.271 126.49 542.478 127.17L520.378 145.53C519.924 145.983 519.188 146.38 518.168 146.72C517.261 147.06 516.241 147.23 515.108 147.23ZM504.738 98.61V120.88C504.738 123.033 505.191 124.62 506.098 125.64C507.118 126.547 508.704 127 510.858 127H537.038C539.191 127 540.721 126.547 541.628 125.64C542.648 124.62 543.158 123.033 543.158 120.88V10.72C543.158 8.56666 542.648 7.03666 541.628 6.13C540.721 5.11 539.191 4.6 537.038 4.6H510.858C508.704 4.6 507.118 5.11 506.098 6.13C505.191 7.03666 504.738 8.56666 504.738 10.72V63.08H488.928C487.341 63.08 486.038 62.57 485.018 61.55C484.111 60.53 483.658 59.1133 483.658 57.3V10.72C483.658 8.56666 483.148 7.03666 482.128 6.13C481.221 5.11 479.691 4.6 477.538 4.6H451.188C449.034 4.6 447.448 5.11 446.428 6.13C445.521 7.03666 445.068 8.56666 445.068 10.72V70.39C445.068 80.0233 447.448 87.1633 452.208 91.81C457.081 96.3433 465.014 98.61 476.008 98.61H504.738ZM523.098 111.7V81.61H482.468C476.008 81.61 471.248 80.1367 468.188 77.19C465.128 74.13 463.598 69.6533 463.598 63.76V19.9H465.298V63.76C465.298 69.2 466.714 73.28 469.548 76C472.381 78.6067 476.688 79.91 482.468 79.91H523.098V19.9H524.798V111.7H523.098Z" fill="#EEFBFD"/>
</g>
<defs>
<filter id="filter0_dddddd_507_7856" x="-57.6387" y="0.349609" width="606.496" height="335.431" filterUnits="userSpaceOnUse" color-interpolation-filters="sRGB">
<feFlood flood-opacity="0" result="BackgroundImageFix"/>
<feColorMatrix in="SourceAlpha" type="matrix" values="0 0 0 0 0 0 0 0 0 0 0 0 0 0 0 0 0 0 127 0" result="hardAlpha"/>
<feOffset dx="-8" dy="4"/>
<feColorMatrix type="matrix" values="0 0 0 0 0.054902 0 0 0 0 0.180392 0 0 0 0 0.243137 0 0 0 1 0"/>
<feBlend mode="normal" in2="BackgroundImageFix" result="effect1_dropShadow_507_7856"/>
<feColorMatrix in="SourceAlpha" type="matrix" values="0 0 0 0 0 0 0 0 0 0 0 0 0 0 0 0 0 0 127 0" result="hardAlpha"/>
<feOffset dx="-131" dy="116"/>
<feGaussianBlur stdDeviation="35"/>
<feColorMatrix type="matrix" values="0 0 0 0 0 0 0 0 0 0 0 0 0 0 0 0 0 0 0.01 0"/>
<feBlend mode="normal" in2="effect1_dropShadow_507_7856" result="effect2_dropShadow_507_7856"/>
<feColorMatrix in="SourceAlpha" type="matrix" values="0 0 0 0 0 0 0 0 0 0 0 0 0 0 0 0 0 0 127 0" result="hardAlpha"/>
<feOffset dy="4"/>
<feGaussianBlur stdDeviation="2"/>
<feComposite in2="hardAlpha" operator="out"/>
<feColorMatrix type="matrix" values="0 0 0 0 0 0 0 0 0 0 0 0 0 0 0 0 0 0 0.25 0"/>
<feBlend mode="normal" in2="effect2_dropShadow_507_7856" result="effect3_dropShadow_507_7856"/>
<feColorMatrix in="SourceAlpha" type="matrix" values="0 0 0 0 0 0 0 0 0 0 0 0 0 0 0 0 0 0 127 0" result="hardAlpha"/>
<feOffset dy="4"/>
<feGaussianBlur stdDeviation="2"/>
<feComposite in2="hardAlpha" operator="out"/>
<feColorMatrix type="matrix" values="0 0 0 0 0 0 0 0 0 0 0 0 0 0 0 0 0 0 0.25 0"/>
<feBlend mode="normal" in2="effect3_dropShadow_507_7856" result="effect4_dropShadow_507_7856"/>
<feColorMatrix in="SourceAlpha" type="matrix" values="0 0 0 0 0 0 0 0 0 0 0 0 0 0 0 0 0 0 127 0" result="hardAlpha"/>
<feOffset dy="4"/>
<feGaussianBlur stdDeviation="2"/>
<feComposite in2="hardAlpha" operator="out"/>
<feColorMatrix type="matrix" values="0 0 0 0 0 0 0 0 0 0 0 0 0 0 0 0 0 0 0.25 0"/>
<feBlend mode="normal" in2="effect4_dropShadow_507_7856" result="effect5_dropShadow_507_7856"/>
<feColorMatrix in="SourceAlpha" type="matrix" values="0 0 0 0 0 0 0 0 0 0 0 0 0 0 0 0 0 0 127 0" result="hardAlpha"/>
<feOffset dy="4"/>
<feGaussianBlur stdDeviation="2"/>
<feComposite in2="hardAlpha" operator="out"/>
<feColorMatrix type="matrix" values="0 0 0 0 0 0 0 0 0 0 0 0 0 0 0 0 0 0 0.25 0"/>
<feBlend mode="normal" in2="effect5_dropShadow_507_7856" result="effect6_dropShadow_507_7856"/>
<feBlend mode="normal" in="SourceGraphic" in2="effect6_dropShadow_507_7856" result="shape"/>
</filter>
</defs>
</svg>
