<svg width="23" height="25" viewBox="0 0 23 25" fill="none" xmlns="http://www.w3.org/2000/svg">
<path d="M13.4177 1.91773V18.1545L19.7079 11.8132C20.475 11.0717 21.6768 11.0717 22.4439 11.8132C23.1854 12.5548 23.1854 13.7821 22.4439 14.5236L12.8552 24.1634C12.1392 24.8794 10.8608 24.8794 10.1448 24.1634L0.556142 14.5236C-0.185381 13.7821 -0.185381 12.5548 0.556142 11.8132C0.939689 11.4553 1.42807 11.2507 1.91134 11.2507C2.39717 11.2507 2.90856 11.4553 3.26654 11.8132L9.58227 18.1545V1.91773C9.58227 0.843802 10.4261 0 11.5 0C12.5484 0 13.4177 0.843802 13.4177 1.91773Z" fill="#1A9DBA"/>
</svg>
