<svg width="10" height="12" viewBox="0 0 10 12" fill="none" xmlns="http://www.w3.org/2000/svg">
<path d="M4.73596 5.71207C4.86013 5.71207 4.95449 5.67234 5.02402 5.59784L7.07024 3.54169C7.15964 3.45726 7.19441 3.35793 7.19441 3.2437C7.19441 3.13443 7.14971 3.02517 7.07024 2.9457L5.02402 0.869685C4.95449 0.790221 4.85516 0.750488 4.73596 0.750488C4.51247 0.750488 4.34361 0.929284 4.34361 1.15775C4.34361 1.26204 4.38334 1.36137 4.45287 1.44084L5.77894 2.74207C5.49585 2.69241 5.20779 2.66261 4.91973 2.66261C2.48612 2.66261 0.529297 4.61446 0.529297 7.04807C0.529297 9.48665 2.48612 11.4435 4.91973 11.4435C7.35334 11.4435 9.30519 9.48665 9.30519 7.04807C9.30519 6.80968 9.13633 6.63585 8.89297 6.63585C8.65954 6.63585 8.50557 6.80968 8.50557 7.04807C8.50557 9.04463 6.91131 10.6439 4.91973 10.6439C2.92814 10.6439 1.32891 9.04463 1.32891 7.04807C1.32891 5.05649 2.92814 3.46222 4.91973 3.46222C5.29718 3.46222 5.64484 3.49202 5.94284 3.55659L4.45784 5.03165C4.38334 5.11112 4.34361 5.21045 4.34361 5.31475C4.34361 5.54321 4.51247 5.71207 4.73596 5.71207Z" fill="#797979"/>
</svg>
