<svg width="20" height="21" viewBox="0 0 20 21" fill="none" xmlns="http://www.w3.org/2000/svg">
<g clip-path="url(#clip0_893_7067)">
<path d="M17.5 0.0576172H2.5C1.83696 0.0576172 1.20107 0.321009 0.732233 0.78985C0.263392 1.25869 0 1.89458 0 2.55762L0 17.5576C0 18.2207 0.263392 18.8565 0.732233 19.3254C1.20107 19.7942 1.83696 20.0576 2.5 20.0576H17.5C18.163 20.0576 18.7989 19.7942 19.2678 19.3254C19.7366 18.8565 20 18.2207 20 17.5576V2.55762C20 1.89458 19.7366 1.25869 19.2678 0.78985C18.7989 0.321009 18.163 0.0576172 17.5 0.0576172ZM1.25 4.87887C1.25 4.28762 1.81 3.80762 2.5 3.80762H17.5C18.19 3.80762 18.75 4.28762 18.75 4.87887V17.7364C18.75 18.3276 18.19 18.8076 17.5 18.8076H2.5C1.81 18.8076 1.25 18.3276 1.25 17.7364V4.87887Z" fill="white"/>
<path d="M8.125 8.80762C8.45652 8.80762 8.77446 8.67592 9.00888 8.4415C9.2433 8.20708 9.375 7.88914 9.375 7.55762C9.375 7.2261 9.2433 6.90815 9.00888 6.67373C8.77446 6.43931 8.45652 6.30762 8.125 6.30762C7.79348 6.30762 7.47554 6.43931 7.24112 6.67373C7.0067 6.90815 6.875 7.2261 6.875 7.55762C6.875 7.88914 7.0067 8.20708 7.24112 8.4415C7.47554 8.67592 7.79348 8.80762 8.125 8.80762ZM11.875 8.80762C12.2065 8.80762 12.5245 8.67592 12.7589 8.4415C12.9933 8.20708 13.125 7.88914 13.125 7.55762C13.125 7.2261 12.9933 6.90815 12.7589 6.67373C12.5245 6.43931 12.2065 6.30762 11.875 6.30762C11.5435 6.30762 11.2255 6.43931 10.9911 6.67373C10.7567 6.90815 10.625 7.2261 10.625 7.55762C10.625 7.88914 10.7567 8.20708 10.9911 8.4415C11.2255 8.67592 11.5435 8.80762 11.875 8.80762ZM15.625 8.80762C15.9565 8.80762 16.2745 8.67592 16.5089 8.4415C16.7433 8.20708 16.875 7.88914 16.875 7.55762C16.875 7.2261 16.7433 6.90815 16.5089 6.67373C16.2745 6.43931 15.9565 6.30762 15.625 6.30762C15.2935 6.30762 14.9755 6.43931 14.7411 6.67373C14.5067 6.90815 14.375 7.2261 14.375 7.55762C14.375 7.88914 14.5067 8.20708 14.7411 8.4415C14.9755 8.67592 15.2935 8.80762 15.625 8.80762ZM4.375 12.5576C4.70652 12.5576 5.02446 12.4259 5.25888 12.1915C5.4933 11.9571 5.625 11.6391 5.625 11.3076C5.625 10.9761 5.4933 10.6582 5.25888 10.4237C5.02446 10.1893 4.70652 10.0576 4.375 10.0576C4.04348 10.0576 3.72554 10.1893 3.49112 10.4237C3.2567 10.6582 3.125 10.9761 3.125 11.3076C3.125 11.6391 3.2567 11.9571 3.49112 12.1915C3.72554 12.4259 4.04348 12.5576 4.375 12.5576ZM8.125 12.5576C8.45652 12.5576 8.77446 12.4259 9.00888 12.1915C9.2433 11.9571 9.375 11.6391 9.375 11.3076C9.375 10.9761 9.2433 10.6582 9.00888 10.4237C8.77446 10.1893 8.45652 10.0576 8.125 10.0576C7.79348 10.0576 7.47554 10.1893 7.24112 10.4237C7.0067 10.6582 6.875 10.9761 6.875 11.3076C6.875 11.6391 7.0067 11.9571 7.24112 12.1915C7.47554 12.4259 7.79348 12.5576 8.125 12.5576ZM11.875 12.5576C12.2065 12.5576 12.5245 12.4259 12.7589 12.1915C12.9933 11.9571 13.125 11.6391 13.125 11.3076C13.125 10.9761 12.9933 10.6582 12.7589 10.4237C12.5245 10.1893 12.2065 10.0576 11.875 10.0576C11.5435 10.0576 11.2255 10.1893 10.9911 10.4237C10.7567 10.6582 10.625 10.9761 10.625 11.3076C10.625 11.6391 10.7567 11.9571 10.9911 12.1915C11.2255 12.4259 11.5435 12.5576 11.875 12.5576ZM15.625 12.5576C15.9565 12.5576 16.2745 12.4259 16.5089 12.1915C16.7433 11.9571 16.875 11.6391 16.875 11.3076C16.875 10.9761 16.7433 10.6582 16.5089 10.4237C16.2745 10.1893 15.9565 10.0576 15.625 10.0576C15.2935 10.0576 14.9755 10.1893 14.7411 10.4237C14.5067 10.6582 14.375 10.9761 14.375 11.3076C14.375 11.6391 14.5067 11.9571 14.7411 12.1915C14.9755 12.4259 15.2935 12.5576 15.625 12.5576ZM4.375 16.3076C4.70652 16.3076 5.02446 16.1759 5.25888 15.9415C5.4933 15.7071 5.625 15.3891 5.625 15.0576C5.625 14.7261 5.4933 14.4082 5.25888 14.1737C5.02446 13.9393 4.70652 13.8076 4.375 13.8076C4.04348 13.8076 3.72554 13.9393 3.49112 14.1737C3.2567 14.4082 3.125 14.7261 3.125 15.0576C3.125 15.3891 3.2567 15.7071 3.49112 15.9415C3.72554 16.1759 4.04348 16.3076 4.375 16.3076ZM8.125 16.3076C8.45652 16.3076 8.77446 16.1759 9.00888 15.9415C9.2433 15.7071 9.375 15.3891 9.375 15.0576C9.375 14.7261 9.2433 14.4082 9.00888 14.1737C8.77446 13.9393 8.45652 13.8076 8.125 13.8076C7.79348 13.8076 7.47554 13.9393 7.24112 14.1737C7.0067 14.4082 6.875 14.7261 6.875 15.0576C6.875 15.3891 7.0067 15.7071 7.24112 15.9415C7.47554 16.1759 7.79348 16.3076 8.125 16.3076ZM11.875 16.3076C12.2065 16.3076 12.5245 16.1759 12.7589 15.9415C12.9933 15.7071 13.125 15.3891 13.125 15.0576C13.125 14.7261 12.9933 14.4082 12.7589 14.1737C12.5245 13.9393 12.2065 13.8076 11.875 13.8076C11.5435 13.8076 11.2255 13.9393 10.9911 14.1737C10.7567 14.4082 10.625 14.7261 10.625 15.0576C10.625 15.3891 10.7567 15.7071 10.9911 15.9415C11.2255 16.1759 11.5435 16.3076 11.875 16.3076Z" fill="white"/>
</g>
<defs>
<clipPath id="clip0_893_7067">
<rect width="20" height="20" fill="white" transform="translate(0 0.0576172)"/>
</clipPath>
</defs>
</svg>
