<svg width="21" height="20" viewBox="0 0 21 20" fill="none" xmlns="http://www.w3.org/2000/svg">
<g id="Calendar3" clip-path="url(#clip0_893_7392)">
<path id="Vector" d="M17.9727 0H2.97266C2.30962 0 1.67373 0.263392 1.20489 0.732233C0.736048 1.20107 0.472656 1.83696 0.472656 2.5L0.472656 17.5C0.472656 18.163 0.736048 18.7989 1.20489 19.2678C1.67373 19.7366 2.30962 20 2.97266 20H17.9727C18.6357 20 19.2716 19.7366 19.7404 19.2678C20.2093 18.7989 20.4727 18.163 20.4727 17.5V2.5C20.4727 1.83696 20.2093 1.20107 19.7404 0.732233C19.2716 0.263392 18.6357 0 17.9727 0ZM1.72266 4.82125C1.72266 4.23 2.28266 3.75 2.97266 3.75H17.9727C18.6627 3.75 19.2227 4.23 19.2227 4.82125V17.6787C19.2227 18.27 18.6627 18.75 17.9727 18.75H2.97266C2.28266 18.75 1.72266 18.27 1.72266 17.6787V4.82125Z" fill="#FF9900"/>
<path id="Vector_2" d="M8.59766 8.75C8.92918 8.75 9.24712 8.6183 9.48154 8.38388C9.71596 8.14946 9.84766 7.83152 9.84766 7.5C9.84766 7.16848 9.71596 6.85054 9.48154 6.61612C9.24712 6.3817 8.92918 6.25 8.59766 6.25C8.26614 6.25 7.94819 6.3817 7.71377 6.61612C7.47935 6.85054 7.34766 7.16848 7.34766 7.5C7.34766 7.83152 7.47935 8.14946 7.71377 8.38388C7.94819 8.6183 8.26614 8.75 8.59766 8.75ZM12.3477 8.75C12.6792 8.75 12.9971 8.6183 13.2315 8.38388C13.466 8.14946 13.5977 7.83152 13.5977 7.5C13.5977 7.16848 13.466 6.85054 13.2315 6.61612C12.9971 6.3817 12.6792 6.25 12.3477 6.25C12.0161 6.25 11.6982 6.3817 11.4638 6.61612C11.2294 6.85054 11.0977 7.16848 11.0977 7.5C11.0977 7.83152 11.2294 8.14946 11.4638 8.38388C11.6982 8.6183 12.0161 8.75 12.3477 8.75ZM16.0977 8.75C16.4292 8.75 16.7471 8.6183 16.9815 8.38388C17.216 8.14946 17.3477 7.83152 17.3477 7.5C17.3477 7.16848 17.216 6.85054 16.9815 6.61612C16.7471 6.3817 16.4292 6.25 16.0977 6.25C15.7661 6.25 15.4482 6.3817 15.2138 6.61612C14.9794 6.85054 14.8477 7.16848 14.8477 7.5C14.8477 7.83152 14.9794 8.14946 15.2138 8.38388C15.4482 8.6183 15.7661 8.75 16.0977 8.75ZM4.84766 12.5C5.17918 12.5 5.49712 12.3683 5.73154 12.1339C5.96596 11.8995 6.09766 11.5815 6.09766 11.25C6.09766 10.9185 5.96596 10.6005 5.73154 10.3661C5.49712 10.1317 5.17918 10 4.84766 10C4.51614 10 4.19819 10.1317 3.96377 10.3661C3.72935 10.6005 3.59766 10.9185 3.59766 11.25C3.59766 11.5815 3.72935 11.8995 3.96377 12.1339C4.19819 12.3683 4.51614 12.5 4.84766 12.5ZM8.59766 12.5C8.92918 12.5 9.24712 12.3683 9.48154 12.1339C9.71596 11.8995 9.84766 11.5815 9.84766 11.25C9.84766 10.9185 9.71596 10.6005 9.48154 10.3661C9.24712 10.1317 8.92918 10 8.59766 10C8.26614 10 7.94819 10.1317 7.71377 10.3661C7.47935 10.6005 7.34766 10.9185 7.34766 11.25C7.34766 11.5815 7.47935 11.8995 7.71377 12.1339C7.94819 12.3683 8.26614 12.5 8.59766 12.5ZM12.3477 12.5C12.6792 12.5 12.9971 12.3683 13.2315 12.1339C13.466 11.8995 13.5977 11.5815 13.5977 11.25C13.5977 10.9185 13.466 10.6005 13.2315 10.3661C12.9971 10.1317 12.6792 10 12.3477 10C12.0161 10 11.6982 10.1317 11.4638 10.3661C11.2294 10.6005 11.0977 10.9185 11.0977 11.25C11.0977 11.5815 11.2294 11.8995 11.4638 12.1339C11.6982 12.3683 12.0161 12.5 12.3477 12.5ZM16.0977 12.5C16.4292 12.5 16.7471 12.3683 16.9815 12.1339C17.216 11.8995 17.3477 11.5815 17.3477 11.25C17.3477 10.9185 17.216 10.6005 16.9815 10.3661C16.7471 10.1317 16.4292 10 16.0977 10C15.7661 10 15.4482 10.1317 15.2138 10.3661C14.9794 10.6005 14.8477 10.9185 14.8477 11.25C14.8477 11.5815 14.9794 11.8995 15.2138 12.1339C15.4482 12.3683 15.7661 12.5 16.0977 12.5ZM4.84766 16.25C5.17918 16.25 5.49712 16.1183 5.73154 15.8839C5.96596 15.6495 6.09766 15.3315 6.09766 15C6.09766 14.6685 5.96596 14.3505 5.73154 14.1161C5.49712 13.8817 5.17918 13.75 4.84766 13.75C4.51614 13.75 4.19819 13.8817 3.96377 14.1161C3.72935 14.3505 3.59766 14.6685 3.59766 15C3.59766 15.3315 3.72935 15.6495 3.96377 15.8839C4.19819 16.1183 4.51614 16.25 4.84766 16.25ZM8.59766 16.25C8.92918 16.25 9.24712 16.1183 9.48154 15.8839C9.71596 15.6495 9.84766 15.3315 9.84766 15C9.84766 14.6685 9.71596 14.3505 9.48154 14.1161C9.24712 13.8817 8.92918 13.75 8.59766 13.75C8.26614 13.75 7.94819 13.8817 7.71377 14.1161C7.47935 14.3505 7.34766 14.6685 7.34766 15C7.34766 15.3315 7.47935 15.6495 7.71377 15.8839C7.94819 16.1183 8.26614 16.25 8.59766 16.25ZM12.3477 16.25C12.6792 16.25 12.9971 16.1183 13.2315 15.8839C13.466 15.6495 13.5977 15.3315 13.5977 15C13.5977 14.6685 13.466 14.3505 13.2315 14.1161C12.9971 13.8817 12.6792 13.75 12.3477 13.75C12.0161 13.75 11.6982 13.8817 11.4638 14.1161C11.2294 14.3505 11.0977 14.6685 11.0977 15C11.0977 15.3315 11.2294 15.6495 11.4638 15.8839C11.6982 16.1183 12.0161 16.25 12.3477 16.25Z" fill="#FF9900"/>
</g>
<defs>
<clipPath id="clip0_893_7392">
<rect width="20" height="20" fill="white" transform="translate(0.472656)"/>
</clipPath>
</defs>
</svg>
