<svg width="15" height="16" viewBox="0 0 15 16" fill="none" xmlns="http://www.w3.org/2000/svg">
<path d="M7.54483 15.2208C11.4709 15.2208 14.7215 11.9631 14.7215 8.0441C14.7215 4.11804 11.4638 0.867432 7.53779 0.867432C3.61877 0.867432 0.368164 4.11804 0.368164 8.0441C0.368164 11.9631 3.62581 15.2208 7.54483 15.2208ZM7.54483 14.0246C4.22386 14.0246 1.57131 11.3651 1.57131 8.0441C1.57131 4.72313 4.21683 2.06354 7.53779 2.06354C10.8588 2.06354 13.5183 4.72313 13.5254 8.0441C13.5324 11.3651 10.8658 14.0246 7.54483 14.0246ZM7.54483 4.4628C7.24228 4.4628 7.01713 4.68091 7.01713 4.9905V8.50847L7.07342 9.99305L6.36982 9.14874L5.53255 8.30442C5.43404 8.21296 5.3074 8.14963 5.15964 8.14963C4.87117 8.14963 4.65305 8.37478 4.65305 8.65622C4.65305 8.80398 4.69527 8.93062 4.78674 9.02209L7.13674 11.3651C7.27746 11.5058 7.39707 11.5621 7.54483 11.5621C7.69962 11.5621 7.82627 11.4987 7.95995 11.3651L10.3029 9.02209C10.3944 8.93062 10.4507 8.80398 10.4507 8.65622C10.4507 8.37478 10.2255 8.14963 9.93705 8.14963C9.78226 8.14963 9.65561 8.20592 9.56414 8.30442L8.7339 9.14874L8.01624 10.0001L8.07252 8.50847V4.9905C8.07252 4.68091 7.85441 4.4628 7.54483 4.4628Z" fill="#737373"/>
</svg>
