<svg width="41" height="47" viewBox="0 0 41 47" fill="none" xmlns="http://www.w3.org/2000/svg">
<rect width="41" height="47" fill="#F5F5F5"/>
<g id="goutes_orange">
<path id="Polygon 16" d="M11.939 38.4029C12.1893 38.1753 16.8566 26.7229 23.8988 23.3215C29.8131 19.8234 33.3747 23.9143 34.352 25.9377C34.8186 26.9039 35.0284 27.8098 35.0956 28.6001C35.2654 30.598 34.409 32.5935 33.0175 34.0372C32.3474 34.7324 31.4618 35.3959 30.3369 35.7557C27.2778 36.734 26.9102 36.5703 23.7911 36.5287C20.672 36.4872 19.4585 36.6608 16.6268 37.0658C13.7951 37.4709 11.6888 38.6304 11.939 38.4029Z" fill="#FF9900"/>
<path id="Polygon 18" d="M9.72163 27.7044C9.78837 27.3728 6.76091 15.3822 10.4175 8.46908C13.1084 2.14646 18.4015 3.33098 20.3878 4.3816C21.3363 4.88329 22.0421 5.48865 22.5646 6.08547C23.8853 7.59414 24.3781 9.70892 24.1128 11.6964C23.985 12.6536 23.6649 13.7128 22.9721 14.6692C21.0877 17.2701 20.6947 17.3561 18.1577 19.1711C15.6206 20.986 14.746 21.845 12.7052 23.8494C10.6644 25.8538 9.65488 28.036 9.72163 27.7044Z" fill="#FF9900"/>
</g>
</svg>
