<svg width="7" height="14" viewBox="0 0 7 14" fill="none" xmlns="http://www.w3.org/2000/svg">
<path d="M5.9105 12.9619L0.330996 7.51606C0.197313 7.38238 0.126953 7.22055 0.126953 7.04466C0.126953 6.86172 0.204349 6.68582 0.338031 6.57325L5.9105 1.12039C6.03011 1.00078 6.1849 0.93042 6.36784 0.93042C6.7337 0.93042 7.00811 1.21186 7.00811 1.57773C7.00811 1.74659 6.93775 1.91545 6.82517 2.03506L1.703 7.04466L6.82517 12.0542C6.93775 12.1739 7.00811 12.3357 7.00811 12.5116C7.00811 12.8775 6.7337 13.1519 6.36784 13.1519C6.1849 13.1519 6.03011 13.0815 5.9105 12.9619Z" fill="#737373"/>
</svg>
