<svg width="1440" height="190" viewBox="0 0 1440 190" fill="none" xmlns="http://www.w3.org/2000/svg">
<path d="M1 76.8371C47.299 112.344 108.048 145.489 166.34 151.652C215.99 156.902 267.449 145.56 312.845 125.569C338.172 114.415 353.17 104.876 375.037 88.6701C394.991 73.8808 412.619 54.3246 434.321 41.9742C506.212 1.06231 599.957 64.5235 655.912 106.61C686.432 129.567 716.139 154.089 752.866 166.412C799.925 182.201 846.34 175.558 889.385 151.907C928.79 130.255 962.686 101.166 994.808 69.9663C1019.68 45.81 1040.61 25.5002 1076.97 24.2883C1109.7 23.1975 1138.95 35.2573 1167.98 49.0995C1211.45 69.824 1253.54 90.1213 1300.71 101.012C1320.02 105.47 1343 110.956 1362.4 103.557C1383.63 95.4569 1397.19 72.9519 1410.18 55.5885C1420.11 42.3199 1428.73 27.9263 1439 15" stroke="#1A9DBA" stroke-opacity="0.22" stroke-width="30" stroke-linecap="round"/>
</svg>
