<svg width="7" height="10" viewBox="0 0 7 10" fill="none" xmlns="http://www.w3.org/2000/svg">
<path d="M1.05221 9.88334H5.78036C6.42105 9.88334 6.73394 9.56548 6.73394 8.87016V5.22472C6.73394 4.59893 6.47568 4.27611 5.94426 4.22147V2.9699C5.94426 1.09752 4.71752 0.193604 3.41629 0.193604C2.11505 0.193604 0.888314 1.09752 0.888314 2.9699V4.24631C0.401592 4.32081 0.0986328 4.63866 0.0986328 5.22472V8.87016C0.0986328 9.56548 0.411525 9.88334 1.05221 9.88334ZM1.68793 2.86561C1.68793 1.619 2.48754 0.958452 3.41629 0.958452C4.34503 0.958452 5.14465 1.619 5.14465 2.86561V4.21651L1.68793 4.22147V2.86561Z" fill="#9E9E9E"/>
</svg>
