<svg width="25" height="26" viewBox="0 0 25 26" fill="none" xmlns="http://www.w3.org/2000/svg">
<path d="M12.5 2.6674C15.8375 2.6674 16.2327 2.67985 17.5512 2.73968C18.3439 2.74933 19.1291 2.8942 19.8726 3.16798C20.4118 3.37493 20.9015 3.69195 21.3101 4.09863C21.7188 4.50532 22.0373 4.99265 22.2452 5.52927C22.5203 6.26924 22.6659 7.05067 22.6756 7.83961C22.7351 9.15176 22.7482 9.54511 22.7482 12.8667C22.7482 16.1882 22.7357 16.5816 22.6756 17.8937C22.6659 18.6827 22.5203 19.4641 22.2452 20.2041C22.0373 20.7407 21.7188 21.228 21.3101 21.6347C20.9015 22.0414 20.4118 22.3584 19.8726 22.5654C19.1291 22.8391 18.3439 22.984 17.5512 22.9937C16.2333 23.0529 15.8381 23.0659 12.5 23.0659C9.1619 23.0659 8.76667 23.0535 7.44881 22.9937C6.65609 22.984 5.8709 22.8391 5.12738 22.5654C4.58819 22.3584 4.09852 22.0414 3.68988 21.6347C3.28125 21.228 2.9627 20.7407 2.75476 20.2041C2.47967 19.4641 2.33411 18.6827 2.3244 17.8937C2.26488 16.5816 2.25179 16.1882 2.25179 12.8667C2.25179 9.54511 2.26429 9.15176 2.3244 7.83961C2.33411 7.05067 2.47967 6.26924 2.75476 5.52927C2.9627 4.99265 3.28125 4.50532 3.68988 4.09863C4.09852 3.69195 4.58819 3.37493 5.12738 3.16798C5.8709 2.8942 6.65609 2.74933 7.44881 2.73968C8.76726 2.68044 9.1625 2.6674 12.5 2.6674V2.6674ZM12.5 0.425781C9.10714 0.425781 8.67976 0.439999 7.34643 0.500423C6.30896 0.52096 5.2825 0.716458 4.31071 1.0786C3.47708 1.39119 2.72202 1.88104 2.09821 2.51397C1.46167 3.13503 0.969044 3.88691 0.654762 4.71709C0.290881 5.68423 0.0944452 6.70579 0.0738096 7.73831C0.0142858 9.06409 0 9.48943 0 12.8661C0 16.2427 0.0142857 16.6681 0.075 17.995C0.0956356 19.0276 0.292072 20.0491 0.655953 21.0163C0.969886 21.8463 1.4621 22.5982 2.09821 23.2194C2.72236 23.8525 3.47785 24.3423 4.3119 24.6547C5.28369 25.0169 6.31015 25.2124 7.34762 25.2329C8.68095 25.2922 9.10655 25.3076 12.5012 25.3076C15.8958 25.3076 16.3214 25.2933 17.6548 25.2329C18.6922 25.2124 19.7187 25.0169 20.6905 24.6547C21.5206 24.3345 22.2744 23.8454 22.9037 23.2187C23.533 22.592 24.024 21.8414 24.3452 21.0151C24.7091 20.0479 24.9056 19.0264 24.9262 17.9939C24.9857 16.6681 25 16.2427 25 12.8661C25 9.48943 24.9857 9.06409 24.925 7.73712C24.9044 6.70461 24.7079 5.68305 24.344 4.71591C24.0301 3.88583 23.5379 3.13396 22.9018 2.51279C22.2776 1.87971 21.5222 1.38985 20.6881 1.07742C19.7163 0.715273 18.6899 0.519775 17.6524 0.499238C16.3202 0.439999 15.8929 0.425781 12.5 0.425781Z" fill="#0E2E3E"/>
<path d="M12.4977 6.47656C11.2281 6.47656 9.98704 6.85124 8.93143 7.5532C7.87582 8.25517 7.05308 9.2529 6.56724 10.4202C6.08139 11.5875 5.95428 12.872 6.20196 14.1113C6.44964 15.3505 7.06099 16.4888 7.95871 17.3822C8.85643 18.2757 10.0002 18.8841 11.2454 19.1306C12.4905 19.3771 13.7812 19.2506 14.9541 18.7671C16.1271 18.2835 17.1296 17.4647 17.8349 16.4142C18.5402 15.3636 18.9167 14.1285 18.9167 12.865C18.9167 11.1706 18.2404 9.54574 17.0366 8.34768C15.8328 7.14962 14.2001 6.47656 12.4977 6.47656ZM12.4977 17.0117C11.6736 17.0117 10.868 16.7685 10.1828 16.3129C9.49758 15.8572 8.96353 15.2096 8.64817 14.4519C8.3328 13.6941 8.25029 12.8604 8.41106 12.056C8.57183 11.2516 8.96867 10.5127 9.55139 9.93275C10.1341 9.35281 10.8765 8.95787 11.6848 8.79786C12.493 8.63786 13.3308 8.71998 14.0922 9.03384C14.8535 9.3477 15.5043 9.8792 15.9621 10.5611C16.42 11.2431 16.6643 12.0448 16.6643 12.865C16.6643 13.9647 16.2253 15.0195 15.4439 15.7972C14.6625 16.5748 13.6027 17.0117 12.4977 17.0117V17.0117Z" fill="#0E2E3E"/>
<path d="M19.1724 7.72005C20.0008 7.72005 20.6724 7.05168 20.6724 6.22721C20.6724 5.40274 20.0008 4.73438 19.1724 4.73438C18.3439 4.73438 17.6724 5.40274 17.6724 6.22721C17.6724 7.05168 18.3439 7.72005 19.1724 7.72005Z" fill="#0E2E3E"/>
</svg>
