<svg width="12" height="12" viewBox="0 0 12 12" fill="none" xmlns="http://www.w3.org/2000/svg">
<path d="M6.04879 11.9755C6.39356 11.9755 6.68203 11.7011 6.68203 11.3634V6.68445H11.2273C11.565 6.68445 11.8534 6.39598 11.8534 6.05122C11.8534 5.70646 11.565 5.42502 11.2273 5.42502H6.68203V0.73908C6.68203 0.401355 6.39356 0.126953 6.04879 0.126953C5.70403 0.126953 5.4226 0.401355 5.4226 0.73908V5.42502H0.87034C0.532614 5.42502 0.244141 5.70646 0.244141 6.05122C0.244141 6.39598 0.532614 6.68445 0.87034 6.68445H5.4226V11.3634C5.4226 11.7011 5.70403 11.9755 6.04879 11.9755Z" fill="#737373"/>
</svg>
