<svg width="7" height="14" viewBox="0 0 7 14" fill="none" xmlns="http://www.w3.org/2000/svg">
<path d="M0.738904 13.1589C0.921838 13.1589 1.07663 13.0885 1.19624 12.9689L6.77574 7.51606C6.90943 7.38238 6.97979 7.22055 6.97979 7.04466C6.97979 6.86172 6.90943 6.69286 6.77574 6.57325L1.20328 1.12743C1.07663 1.00078 0.921838 0.93042 0.738904 0.93042C0.373035 0.93042 0.0986328 1.21186 0.0986328 1.57773C0.0986328 1.74659 0.168992 1.91545 0.281567 2.03506L5.40373 7.04466L0.281567 12.0542C0.168992 12.1739 0.0986328 12.3357 0.0986328 12.5116C0.0986328 12.8775 0.373035 13.1589 0.738904 13.1589Z" fill="#BFBFBF"/>
</svg>
