<svg width="13" height="17" viewBox="0 0 13 17" fill="none" xmlns="http://www.w3.org/2000/svg">
<path d="M6.29675 10.9577C6.59929 10.9577 6.85259 10.7044 6.85259 10.4088V3.18293L6.81037 2.12754L7.28882 2.62709L8.35124 3.76692C8.44975 3.87949 8.5975 3.93578 8.73118 3.93578C9.02669 3.93578 9.24481 3.7247 9.24481 3.43623C9.24481 3.28847 9.18852 3.1759 9.08298 3.07036L6.70483 0.77664C6.56411 0.635922 6.43747 0.58667 6.29675 0.58667C6.15603 0.58667 6.02938 0.635922 5.88866 0.77664L3.51051 3.07036C3.40497 3.1759 3.34165 3.28847 3.34165 3.43623C3.34165 3.7247 3.55976 3.93578 3.84824 3.93578C3.98896 3.93578 4.13671 3.87949 4.23522 3.76692L5.30468 2.62709L5.78312 2.12754L5.73387 3.18293V10.4088C5.73387 10.7044 5.9942 10.9577 6.29675 10.9577ZM2.25811 16.4668H10.3283C11.7989 16.4668 12.5376 15.7351 12.5376 14.2857V7.26378C12.5376 5.81438 11.7989 5.08264 10.3283 5.08264H8.36531V6.21543H10.3072C11.0038 6.21543 11.4048 6.59537 11.4048 7.3271V14.2223C11.4048 14.9541 11.0038 15.334 10.3072 15.334H2.27219C1.56859 15.334 1.18162 14.9541 1.18162 14.2223V7.3271C1.18162 6.59537 1.56859 6.21543 2.27219 6.21543H4.22114V5.08264H2.25811C0.787602 5.08264 0.0488281 5.81438 0.0488281 7.26378V14.2857C0.0488281 15.7351 0.787602 16.4668 2.25811 16.4668Z" fill="#737373"/>
</svg>
