<svg width="13" height="15" viewBox="0 0 13 15" fill="none" xmlns="http://www.w3.org/2000/svg">
<path d="M6.67792 14.3403C6.7905 14.3403 6.97343 14.2981 7.14933 14.1996C11.1528 11.9551 12.5248 11.0053 12.5248 8.43714V3.05464C12.5248 2.31586 12.2082 2.08368 11.6101 1.83038C10.7799 1.48562 8.09918 0.521698 7.26894 0.233225C7.07897 0.169901 6.87493 0.127686 6.67792 0.127686C6.48092 0.127686 6.27688 0.183973 6.09394 0.233225C5.2637 0.472447 2.57597 1.49266 1.74573 1.83038C1.15471 2.07664 0.831055 2.31586 0.831055 3.05464V8.43714C0.831055 11.0053 2.2101 11.9481 6.20652 14.1996C6.38945 14.2981 6.56535 14.3403 6.67792 14.3403ZM6.95936 1.3238C8.02179 1.74595 10.0833 2.49176 11.1739 2.86467C11.3639 2.93503 11.4061 3.03353 11.4061 3.27275V8.17681C11.4061 10.3509 10.3648 10.9208 7.11415 12.8979C6.91011 13.0246 6.79753 13.0598 6.68496 13.0668V1.26047C6.75532 1.26047 6.84679 1.28158 6.95936 1.3238Z" fill="#737373"/>
</svg>
