<svg width="16" height="16" viewBox="0 0 16 16" fill="none" xmlns="http://www.w3.org/2000/svg">
<path d="M2.56768 12.1672H3.77083V13.2437C3.77083 14.6931 4.50257 15.4249 5.98012 15.4249H13.0442C14.5077 15.4249 15.2465 14.6931 15.2465 13.2437V6.12336C15.2465 4.67395 14.5077 3.94221 13.0442 3.94221H11.834V2.86571C11.834 1.41631 11.0952 0.68457 9.63177 0.68457H2.56768C1.09014 0.68457 0.358398 1.41631 0.358398 2.86571V9.98609C0.358398 11.4355 1.09014 12.1672 2.56768 12.1672ZM2.58176 11.0344C1.87816 11.0344 1.49119 10.6545 1.49119 9.92277V2.92904C1.49119 2.1973 1.87816 1.81736 2.58176 1.81736H9.61066C10.3072 1.81736 10.7012 2.1973 10.7012 2.92904V3.94221H5.98012C4.50257 3.94221 3.77083 4.66691 3.77083 6.12336V11.0344H2.58176ZM5.99419 14.2921C5.29763 14.2921 4.90362 13.9121 4.90362 13.1804V6.18668C4.90362 5.45494 5.29763 5.075 5.99419 5.075H13.0231C13.7197 5.075 14.1137 5.45494 14.1137 6.18668V13.1804C14.1137 13.9121 13.7197 14.2921 13.0231 14.2921H5.99419Z" fill="#737373"/>
</svg>
