<svg width="18" height="14" viewBox="0 0 18 14" fill="none" xmlns="http://www.w3.org/2000/svg">
<path d="M2.88116 13.5318H15.0533C16.5309 13.5318 17.2626 12.8 17.2626 11.3506V2.75976C17.2626 1.31035 16.5309 0.578613 15.0533 0.578613H2.88116C1.41065 0.578613 0.671875 1.30332 0.671875 2.75976V11.3506C0.671875 12.8071 1.41065 13.5318 2.88116 13.5318ZM2.89523 12.399C2.19164 12.399 1.80466 12.0261 1.80466 11.2944V2.81604C1.80466 2.08431 2.19164 1.7114 2.89523 1.7114H6.03326V12.399H2.89523ZM15.0393 1.7114C15.7358 1.7114 16.1298 2.08431 16.1298 2.81604V11.2944C16.1298 12.0261 15.7358 12.399 15.0393 12.399H7.13791V1.7114H15.0393ZM4.67533 4.32174C4.89344 4.32174 5.07638 4.13176 5.07638 3.92772C5.07638 3.71664 4.89344 3.53371 4.67533 3.53371H3.16964C2.95856 3.53371 2.76859 3.71664 2.76859 3.92772C2.76859 4.13176 2.95856 4.32174 3.16964 4.32174H4.67533ZM4.67533 6.14404C4.89344 6.14404 5.07638 5.95407 5.07638 5.743C5.07638 5.53192 4.89344 5.35602 4.67533 5.35602H3.16964C2.95856 5.35602 2.76859 5.53192 2.76859 5.743C2.76859 5.95407 2.95856 6.14404 3.16964 6.14404H4.67533ZM4.67533 7.95932C4.89344 7.95932 5.07638 7.78342 5.07638 7.57234C5.07638 7.36126 4.89344 7.17833 4.67533 7.17833H3.16964C2.95856 7.17833 2.76859 7.36126 2.76859 7.57234C2.76859 7.78342 2.95856 7.95932 3.16964 7.95932H4.67533Z" fill="#737373"/>
</svg>
