<svg width="33" height="38" viewBox="0 0 33 38" fill="none" xmlns="http://www.w3.org/2000/svg">
<path d="M10.3883 33.4477C10.5856 33.217 13.4543 22.4941 19.3428 18.6736C24.2161 14.8937 27.8475 18.1362 28.9453 19.8281C29.3956 20.5222 29.6721 21.198 29.8353 21.8161C30.3472 23.7548 29.7477 25.8816 28.4777 27.4333C27.9788 28.0429 27.3227 28.6275 26.4737 29.0222C23.8596 30.2372 23.5139 30.1328 20.7317 30.4465C17.9495 30.7601 16.8884 31.0511 14.4124 31.7301C11.9364 32.4092 10.1911 33.6784 10.3883 33.4477Z" fill="#FFF6E5"/>
<path d="M7.21051 24.1694C7.23267 23.8667 3.18881 13.5296 5.66781 6.96256C7.35314 1.0299 12.1997 1.48964 14.0866 2.20191C14.8607 2.49412 15.4838 2.8746 15.9816 3.27576C17.5429 4.53395 18.3204 6.60235 18.2169 8.60482C18.1763 9.39156 17.9943 10.2513 17.5443 11.0723C16.1588 13.6002 15.8185 13.7209 13.7633 15.6223C11.7082 17.5237 11.0259 18.3869 9.43395 20.4012C7.84195 22.4155 7.18835 24.4722 7.21051 24.1694Z" fill="#FFF6E5"/>
</svg>
