<svg viewBox="0 0 33 39" fill="none" xmlns="http://www.w3.org/2000/svg">
<path d="M10.2599 34.2788C10.4572 34.048 13.3259 23.3252 19.2144 19.5047C24.0877 15.7248 27.7191 18.9673 28.8168 20.6592C29.2672 21.3533 29.5437 22.029 29.7069 22.6472C30.2188 24.5859 29.6193 26.7127 28.3493 28.2643C27.8503 28.874 27.1942 29.4586 26.3453 29.8532C23.7311 31.0683 23.3854 30.9639 20.6033 31.2775C17.8211 31.5911 16.76 31.8821 14.284 32.5612C11.8079 33.2402 10.0626 34.5095 10.2599 34.2788Z" fill="#EEFBFD"/>
<path d="M7.08209 25.0005C7.10425 24.6977 3.06039 14.3606 5.53939 7.79362C7.22473 1.86095 12.0713 2.3207 13.9582 3.03296C14.7323 3.32517 15.3554 3.70566 15.8532 4.10682C17.4145 5.365 18.1919 7.43341 18.0885 9.43587C18.0479 10.2226 17.8659 11.0823 17.4159 11.9033C16.0304 14.4312 15.69 14.552 13.6349 16.4534C11.5798 18.3547 10.8975 19.218 9.30553 21.2323C7.71354 23.2466 7.05993 25.3033 7.08209 25.0005Z" fill="#EEFBFD"/>
</svg>
