<svg  viewBox="0 0 27 31" fill="none" xmlns="http://www.w3.org/2000/svg">
<path d="M8.15427 26.3844C8.31914 26.217 11.1164 18.0923 15.871 15.4617C19.8394 12.8073 22.4677 15.5083 23.2235 16.8744C23.3994 17.1923 23.5324 17.5027 23.6315 17.8005C24.2644 19.7031 23.5151 21.9281 21.9514 23.1833C21.6265 23.444 21.2497 23.6743 20.8159 23.84C18.7313 24.6365 18.47 24.5371 16.3045 24.6282C14.139 24.7194 13.3038 24.8865 11.3549 25.2765C9.40605 25.6665 7.9894 26.5519 8.15427 26.3844Z" fill="#CB6100"/>
<path d="M6.2049 19.0484C6.23845 18.8158 3.67678 10.6138 5.94754 5.67717C7.571 1.18734 11.2887 1.80542 12.7071 2.45786C13.0372 2.60971 13.3283 2.78087 13.5846 2.96206C15.2219 4.11952 15.9368 6.35575 15.4212 8.29344C15.3141 8.69601 15.1469 9.10483 14.8958 9.49539C13.6886 11.3723 13.4192 11.4471 11.729 12.8038C10.0388 14.1605 9.46511 14.7901 8.12641 16.2592C6.78771 17.7282 6.17136 19.281 6.2049 19.0484Z" fill="#CB6100"/>
</svg>
