<svg width="215" height="251" viewBox="0 0 215 251" xmlns="http://www.w3.org/2000/svg" >
  <path d="M68.2449 222.48C69.5572 220.945 88.6384 149.622 127.807 124.209C160.222 99.0667 184.376 120.635 191.678 131.888C200.016 144.74 199.394 156.646 198.507 161.968C198.177 163.946 197.612 165.862 196.918 167.743C194.766 173.573 188.586 186.839 175.238 193.043C157.85 201.126 155.551 200.431 137.045 202.517C118.539 204.603 111.481 206.539 95.0113 211.056C78.5417 215.572 66.9327 224.015 68.2449 222.48Z" fill="#CB6100"/>
  <path d="M47.1072 160.765C47.2546 158.751 20.3566 89.9931 36.8458 46.3119C48.056 6.85025 80.2937 9.90828 92.8441 14.646C107.176 20.0562 113.731 30.0156 116.17 34.828C117.077 36.6165 117.757 38.4945 118.312 40.4211C120.035 46.3922 122.918 60.7405 115.844 73.648C106.628 90.4626 104.364 91.2659 90.6938 103.913C77.0239 116.56 72.4859 122.302 61.8967 135.7C51.3074 149.099 46.9598 162.779 47.1072 160.765Z" fill="#CB6100"/>
</svg>