<svg width="753" height="345" viewBox="0 0 753 345" fill="none" xmlns="http://www.w3.org/2000/svg">
<path d="M620.34 337.93C620.55 337.657 623.61 324.964 629.891 320.442C635.089 315.967 638.962 319.806 640.133 321.809C640.29 322.077 640.427 322.343 640.546 322.605C641.965 325.715 641.052 329.853 638.56 331.974C638.242 332.245 637.889 332.49 637.497 332.692C634.708 334.13 634.34 334.006 631.372 334.378C628.405 334.749 627.273 335.093 624.632 335.897C621.991 336.701 620.13 338.203 620.34 337.93Z" fill="#FF9900"/>
<path d="M616.949 326.948C616.972 326.589 612.659 314.353 615.303 306.58C617.101 299.557 622.27 300.101 624.283 300.944C624.552 301.057 624.805 301.181 625.041 301.314C627.845 302.886 629.319 306.819 628.444 310.167C628.333 310.594 628.178 311.024 627.971 311.444C626.493 314.437 626.13 314.58 623.938 316.83C621.746 319.081 621.018 320.103 619.32 322.487C617.622 324.872 616.925 327.306 616.949 326.948Z" fill="#FF9900"/>
<path d="M232.576 323.787C232.576 319.767 233.392 316.161 235.026 312.969C236.659 309.738 238.879 307.215 241.684 305.403C244.524 303.59 247.667 302.684 251.111 302.684C255.159 302.684 258.692 303.767 261.711 305.935C264.729 308.102 266.93 311.176 268.315 315.156H262.51C261.48 312.673 259.989 310.762 258.036 309.422C256.118 308.082 253.81 307.413 251.111 307.413C248.519 307.413 246.193 308.082 244.134 309.422C242.074 310.762 240.459 312.673 239.287 315.156C238.115 317.6 237.529 320.476 237.529 323.787C237.529 327.058 238.115 329.934 239.287 332.417C240.459 334.86 242.074 336.752 244.134 338.092C246.193 339.432 248.519 340.102 251.111 340.102C253.81 340.102 256.118 339.451 258.036 338.151C259.989 336.811 261.48 334.9 262.51 332.417H268.315C266.93 336.358 264.729 339.412 261.711 341.579C258.692 343.708 255.159 344.772 251.111 344.772C247.667 344.772 244.524 343.885 241.684 342.112C238.879 340.299 236.659 337.796 235.026 334.604C233.392 331.412 232.576 327.806 232.576 323.787Z" fill="#0E2E3E"/>
<path d="M278.14 317.284C278.993 315.432 280.2 313.994 281.762 312.969C283.36 311.944 285.295 311.432 287.568 311.432V316.989H286.29C280.857 316.989 278.14 320.26 278.14 326.801V344.417H273.293V312.023H278.14V317.284Z" fill="#0E2E3E"/>
<path d="M317.558 326.979C317.558 328.003 317.504 329.087 317.398 330.23H294.069C294.246 333.422 295.223 335.924 296.998 337.737C298.809 339.511 300.993 340.397 303.549 340.397C305.644 340.397 307.384 339.865 308.769 338.801C310.19 337.698 311.184 336.24 311.752 334.427H316.972C316.191 337.54 314.628 340.082 312.285 342.052C309.941 343.983 307.029 344.949 303.549 344.949C300.78 344.949 298.294 344.259 296.093 342.88C293.927 341.501 292.222 339.55 290.979 337.028C289.737 334.466 289.115 331.511 289.115 328.161C289.115 324.811 289.719 321.875 290.926 319.353C292.133 316.831 293.82 314.9 295.986 313.56C298.188 312.181 300.709 311.491 303.549 311.491C306.319 311.491 308.769 312.161 310.9 313.501C313.03 314.841 314.664 316.693 315.8 319.058C316.972 321.383 317.558 324.023 317.558 326.979ZM312.551 325.856C312.551 323.806 312.143 322.053 311.326 320.595C310.509 319.097 309.391 317.974 307.97 317.225C306.585 316.437 305.041 316.043 303.336 316.043C300.886 316.043 298.791 316.91 297.051 318.644C295.347 320.378 294.37 322.782 294.122 325.856H312.551Z" fill="#0E2E3E"/>
<path d="M319.908 328.102C319.908 324.792 320.511 321.895 321.718 319.412C322.926 316.89 324.577 314.94 326.672 313.56C328.802 312.181 331.164 311.491 333.756 311.491C336.313 311.491 338.532 312.102 340.414 313.324C342.296 314.545 343.698 316.082 344.622 317.934V312.023H349.522V344.417H344.622V338.387C343.663 340.279 342.225 341.855 340.307 343.116C338.425 344.338 336.224 344.949 333.703 344.949C331.111 344.949 328.767 344.24 326.672 342.821C324.577 341.402 322.926 339.412 321.718 336.851C320.511 334.289 319.908 331.373 319.908 328.102ZM344.622 328.161C344.622 325.718 344.178 323.59 343.29 321.777C342.402 319.964 341.195 318.585 339.668 317.639C338.177 316.654 336.526 316.161 334.715 316.161C332.904 316.161 331.253 316.634 329.761 317.58C328.27 318.526 327.08 319.905 326.193 321.718C325.305 323.53 324.861 325.659 324.861 328.102C324.861 330.585 325.305 332.752 326.193 334.604C327.08 336.417 328.27 337.816 329.761 338.801C331.253 339.747 332.904 340.22 334.715 340.22C336.526 340.22 338.177 339.747 339.668 338.801C341.195 337.816 342.402 336.417 343.29 334.604C344.178 332.752 344.622 330.604 344.622 328.161Z" fill="#0E2E3E"/>
<path d="M361.388 316.457V335.55C361.388 337.126 361.69 338.249 362.293 338.919C362.897 339.55 363.945 339.865 365.436 339.865H369.005V344.417H364.637C361.938 344.417 359.914 343.727 358.565 342.348C357.216 340.969 356.541 338.703 356.541 335.55V316.457H352.759V312.023H356.541V303.866H361.388V312.023H369.005V316.457H361.388Z" fill="#0E2E3E"/>
<path d="M375.144 306.762C374.22 306.762 373.439 306.408 372.8 305.698C372.161 304.989 371.841 304.122 371.841 303.097C371.841 302.073 372.161 301.206 372.8 300.496C373.439 299.787 374.22 299.432 375.144 299.432C376.031 299.432 376.777 299.787 377.381 300.496C378.02 301.206 378.339 302.073 378.339 303.097C378.339 304.122 378.02 304.989 377.381 305.698C376.777 306.408 376.031 306.762 375.144 306.762ZM377.487 312.023V344.417H372.64V312.023H377.487Z" fill="#0E2E3E"/>
<path d="M394.377 339.451L403.431 312.023H408.598L397.146 344.417H391.5L380.049 312.023H385.269L394.377 339.451Z" fill="#0E2E3E"/>
<path d="M437.762 326.979C437.762 328.003 437.709 329.087 437.602 330.23H414.273C414.451 333.422 415.427 335.924 417.202 337.737C419.013 339.511 421.197 340.397 423.754 340.397C425.849 340.397 427.589 339.865 428.974 338.801C430.394 337.698 431.388 336.24 431.956 334.427H437.176C436.395 337.54 434.833 340.082 432.489 342.052C430.145 343.983 427.234 344.949 423.754 344.949C420.984 344.949 418.499 344.259 416.297 342.88C414.131 341.501 412.427 339.55 411.184 337.028C409.941 334.466 409.32 331.511 409.32 328.161C409.32 324.811 409.923 321.875 411.13 319.353C412.338 316.831 414.024 314.9 416.19 313.56C418.392 312.181 420.913 311.491 423.754 311.491C426.524 311.491 428.974 312.161 431.104 313.501C433.235 314.841 434.868 316.693 436.004 319.058C437.176 321.383 437.762 324.023 437.762 326.979ZM432.755 325.856C432.755 323.806 432.347 322.053 431.53 320.595C430.714 319.097 429.595 317.974 428.175 317.225C426.79 316.437 425.245 316.043 423.541 316.043C421.091 316.043 418.996 316.91 417.256 318.644C415.551 320.378 414.575 322.782 414.326 325.856H432.755Z" fill="#0E2E3E"/>
<path d="M465.657 344.831C463.207 344.831 461.005 344.358 459.052 343.412C457.135 342.427 455.626 341.087 454.525 339.392C453.424 337.658 452.856 335.668 452.821 333.422H457.987C458.165 335.353 458.875 336.988 460.118 338.328C461.396 339.629 463.243 340.279 465.657 340.279C467.965 340.279 469.776 339.649 471.09 338.387C472.439 337.087 473.114 335.432 473.114 333.422C473.114 331.846 472.723 330.565 471.942 329.58C471.161 328.594 470.184 327.846 469.013 327.333C467.841 326.821 466.261 326.269 464.272 325.678C461.822 324.969 459.851 324.26 458.36 323.55C456.904 322.841 455.644 321.737 454.578 320.24C453.549 318.703 453.034 316.654 453.034 314.092C453.034 311.846 453.549 309.856 454.578 308.122C455.608 306.388 457.046 305.048 458.893 304.102C460.775 303.156 462.923 302.684 465.337 302.684C468.817 302.684 471.658 303.649 473.86 305.58C476.097 307.511 477.357 310.073 477.641 313.265H472.315C472.137 311.688 471.392 310.309 470.078 309.127C468.764 307.905 467.024 307.294 464.858 307.294C462.834 307.294 461.183 307.885 459.905 309.068C458.626 310.21 457.987 311.826 457.987 313.915C457.987 315.412 458.36 316.634 459.106 317.58C459.887 318.526 460.828 319.255 461.929 319.767C463.065 320.24 464.645 320.792 466.669 321.422C469.119 322.171 471.09 322.92 472.581 323.668C474.073 324.378 475.351 325.501 476.416 327.038C477.482 328.535 478.014 330.585 478.014 333.185C478.014 335.195 477.535 337.087 476.576 338.86C475.617 340.634 474.197 342.072 472.315 343.176C470.433 344.279 468.214 344.831 465.657 344.831Z" fill="#0E2E3E"/>
<path d="M488.822 316.457V335.55C488.822 337.126 489.124 338.249 489.728 338.919C490.331 339.55 491.379 339.865 492.87 339.865H496.439V344.417H492.071C489.372 344.417 487.348 343.727 485.999 342.348C484.65 340.969 483.975 338.703 483.975 335.55V316.457H480.193V312.023H483.975V303.866H488.822V312.023H496.439V316.457H488.822Z" fill="#0E2E3E"/>
<path d="M525.96 312.023V344.417H521.113V339.629C520.19 341.284 518.894 342.584 517.225 343.53C515.592 344.437 513.781 344.89 511.792 344.89C509.52 344.89 507.478 344.378 505.667 343.353C503.856 342.289 502.418 340.713 501.353 338.624C500.323 336.535 499.808 333.993 499.808 330.998V312.023H504.602V330.289C504.602 333.481 505.33 335.944 506.786 337.678C508.241 339.373 510.23 340.22 512.751 340.22C515.343 340.22 517.385 339.333 518.876 337.56C520.368 335.786 521.113 333.205 521.113 329.816V312.023H525.96Z" fill="#0E2E3E"/>
<path d="M530.096 328.102C530.096 324.792 530.7 321.895 531.907 319.412C533.114 316.89 534.766 314.94 536.861 313.56C538.991 312.181 541.37 311.491 543.998 311.491C546.27 311.491 548.383 312.082 550.336 313.265C552.289 314.407 553.78 315.925 554.81 317.816V300.674H559.71V344.417H554.81V338.328C553.852 340.259 552.431 341.855 550.549 343.116C548.667 344.338 546.466 344.949 543.945 344.949C541.352 344.949 538.991 344.24 536.861 342.821C534.766 341.402 533.114 339.412 531.907 336.851C530.7 334.289 530.096 331.373 530.096 328.102ZM554.81 328.161C554.81 325.718 554.366 323.59 553.479 321.777C552.591 319.964 551.384 318.585 549.857 317.639C548.365 316.654 546.714 316.161 544.903 316.161C543.092 316.161 541.441 316.634 539.95 317.58C538.458 318.526 537.269 319.905 536.381 321.718C535.493 323.53 535.05 325.659 535.05 328.102C535.05 330.585 535.493 332.752 536.381 334.604C537.269 336.417 538.458 337.816 539.95 338.801C541.441 339.747 543.092 340.22 544.903 340.22C546.714 340.22 548.365 339.747 549.857 338.801C551.384 337.816 552.591 336.417 553.479 334.604C554.366 332.752 554.81 330.604 554.81 328.161Z" fill="#0E2E3E"/>
<path d="M568.168 306.762C567.245 306.762 566.463 306.408 565.824 305.698C565.185 304.989 564.865 304.122 564.865 303.097C564.865 302.073 565.185 301.206 565.824 300.496C566.463 299.787 567.245 299.432 568.168 299.432C569.055 299.432 569.801 299.787 570.405 300.496C571.044 301.206 571.363 302.073 571.363 303.097C571.363 304.122 571.044 304.989 570.405 305.698C569.801 306.408 569.055 306.762 568.168 306.762ZM570.511 312.023V344.417H565.664V312.023H570.511Z" fill="#0E2E3E"/>
<path d="M589.265 344.949C586.531 344.949 584.045 344.259 581.808 342.88C579.607 341.501 577.867 339.55 576.588 337.028C575.346 334.466 574.724 331.511 574.724 328.161C574.724 324.851 575.363 321.934 576.642 319.412C577.955 316.851 579.731 314.9 581.968 313.56C584.205 312.181 586.708 311.491 589.478 311.491C592.248 311.491 594.751 312.181 596.988 313.56C599.225 314.9 600.983 316.831 602.261 319.353C603.575 321.875 604.232 324.811 604.232 328.161C604.232 331.511 603.557 334.466 602.208 337.028C600.894 339.55 599.101 341.501 596.828 342.88C594.556 344.259 592.035 344.949 589.265 344.949ZM589.265 340.22C591.005 340.22 592.638 339.767 594.165 338.86C595.692 337.954 596.917 336.594 597.84 334.782C598.799 332.969 599.278 330.762 599.278 328.161C599.278 325.56 598.817 323.353 597.894 321.54C596.97 319.728 595.763 318.388 594.272 317.521C592.78 316.614 591.165 316.161 589.425 316.161C587.649 316.161 586.016 316.614 584.524 317.521C583.069 318.388 581.897 319.728 581.009 321.54C580.121 323.353 579.678 325.56 579.678 328.161C579.678 330.801 580.104 333.028 580.956 334.841C581.844 336.653 583.015 338.013 584.471 338.919C585.927 339.786 587.525 340.22 589.265 340.22Z" fill="#0E2E3E"/>
<path d="M352.164 74.9859C328.352 147.659 328.352 188.29 352.164 260.964H293.527L305.731 178.711H301.266C293.825 216.039 262.274 264.928 229.235 264.928C185.481 264.928 211.674 217.69 211.674 166.819C211.674 135.107 202.745 102.734 193.518 74.9859H273.882C308.707 149.641 204.531 191.264 216.139 212.075C217.032 213.726 220.008 214.717 224.473 214.717C253.642 214.717 343.83 174.086 293.23 74.9859H352.164Z" fill="#0E2E3E"/>
<path d="M357.947 27.7481C357.947 11.2314 372.532 0 394.855 0C416.881 0 431.466 11.2314 431.466 27.7481C431.466 44.5951 416.881 56.1568 394.855 56.1568C372.532 56.1568 357.947 44.5951 357.947 27.7481ZM361.816 260.964C385.926 204.807 391.879 137.749 361.816 74.9859H427.299C403.487 131.143 397.534 198.201 427.299 260.964H361.816Z" fill="#0E2E3E"/>
<path d="M437.114 260.964C460.926 188.29 466.879 82.9139 437.114 3.63367H495.751L483.25 157.239H488.012C495.453 119.911 527.599 71.0218 560.638 71.0218C579.39 71.0218 585.938 82.5836 585.938 98.4396C585.938 133.125 576.116 151.954 549.625 166.158C532.362 175.407 515.098 176.729 515.098 182.675C515.098 191.264 537.422 195.228 585.045 195.228V264.928C505.573 264.928 507.955 204.477 507.955 195.228C507.955 164.506 523.432 167.81 547.542 156.248C566.294 147.329 577.306 130.812 573.139 123.545C572.246 121.893 569.27 120.902 564.805 120.902C535.636 120.902 445.449 161.864 496.049 260.964H437.114Z" fill="#0E2E3E"/>
<path d="M753 74.9859C729.188 147.659 729.188 271.535 753 344.208H694.363L706.865 178.711H702.102C694.661 216.039 663.11 264.928 630.071 264.928C586.317 264.928 612.51 217.69 612.51 166.819C612.51 135.107 603.581 102.734 594.354 74.9859H674.719C709.543 149.641 605.367 191.594 616.975 212.405C617.868 214.057 620.844 215.048 625.012 215.048C652.99 215.048 739.308 174.086 694.066 74.9859H753Z" fill="#0E2E3E"/>
<path d="M177.147 344.417C92.146 353.844 9.04162 247.151 0.783786 155.445C-4.95822 91.6777 20.6645 24.0999 83.7492 17.1032C146.834 10.1065 184.266 70.3589 190.038 134.455C195.78 198.222 169.861 265.833 106.776 272.829C102.334 273.322 93.0933 273.683 85.2152 272.565C81.7794 277.594 80.6241 281.374 80.8904 284.332C81.4824 290.906 89.4493 293.01 101 291.729C122.028 289.397 155.2 275.758 177.147 257.057V344.417ZM144.727 73.0843C106.225 77.3546 19.4425 156.695 23.379 200.412C24.5925 213.889 34.5436 218.097 45.7981 216.848C84.3006 212.578 171.35 132.876 167.413 89.1591C166.2 75.6825 155.686 71.8689 144.727 73.0843Z" fill="#0E2E3E"/>
</svg>
