<svg width="1569" height="2684" viewBox="0 0 1569 2684" fill="none" xmlns="http://www.w3.org/2000/svg">
<path d="M1241.77 2684C604.226 2684 0 1909.3 0 1288.21C0 856.338 235.47 422.241 708.633 422.241C1181.79 422.241 1419.49 854.112 1419.49 1288.21C1419.49 1720.08 1181.79 2154.18 708.633 2154.18C675.311 2154.18 606.447 2149.73 548.69 2136.37C519.812 2167.54 508.705 2192.02 508.705 2212.06C508.705 2256.58 566.462 2276.62 653.097 2276.62C810.818 2276.62 1066.28 2209.83 1241.77 2100.75V2684ZM1124.04 842.981C835.254 842.981 137.728 1310.47 137.728 1606.55C137.728 1697.82 208.813 1733.44 293.227 1733.44C582.012 1733.44 1281.76 1263.72 1281.76 967.645C1281.76 876.373 1206.23 842.981 1124.04 842.981Z" fill="#FF9900"/>
<path d="M1253.34 510.428C1256.51 506.707 1302.68 333.784 1397.44 272.171C1475.86 211.214 1534.3 263.505 1551.96 290.789C1557.55 299.421 1561.48 307.878 1564.19 315.867C1576.13 351.088 1565.08 391.828 1539.64 418.918C1532.33 426.703 1523.29 433.891 1512.19 439.059C1470.12 458.654 1464.56 456.97 1419.79 462.028C1375.02 467.085 1357.94 471.778 1318.1 482.729C1278.25 493.68 1250.16 514.149 1253.34 510.428Z" fill="#FF9900"/>
<path d="M1202.18 360.829C1202.54 355.946 1137.46 189.243 1177.36 83.3388C1204.48 -12.3354 1282.47 -4.92123 1312.84 6.56525C1322.44 10.1993 1330.61 14.6798 1337.51 19.5071C1367.96 40.7869 1383.15 80.1625 1378.68 117.09C1377.4 127.7 1374.36 138.864 1368.48 149.615C1346.18 190.382 1340.71 192.329 1307.63 222.992C1274.56 253.655 1263.58 267.576 1237.96 300.06C1212.35 332.544 1201.83 365.711 1202.18 360.829Z" fill="#FF9900"/>
</svg>
