<svg width="28" height="36" viewBox="0 0 28 36" fill="none" xmlns="http://www.w3.org/2000/svg">
<path fill-rule="evenodd" clip-rule="evenodd" d="M1.59573 23.9388C1.67972 24.3885 1.7305 24.6587 1.72073 24.7046C1.65433 25.0362 2.66409 22.8541 4.70511 20.8497C6.74612 18.8453 7.62112 17.9861 10.1563 16.1712L11.0489 15.5386C12.8203 14.2908 13.334 13.9302 14.9707 11.6692C15.6641 10.7129 15.9844 9.65386 16.1133 8.69659C16.377 6.70904 15.8848 4.59429 14.5645 3.08575C14.041 2.48882 13.336 1.88335 12.3867 1.38189C10.4004 0.331109 5.10745 -0.853462 2.418 5.46929C-0.732392 11.4239 1.0762 21.1453 1.59573 23.9388ZM4.293 34.7117C4.09378 35.1238 3.97464 35.3714 3.93948 35.4029C3.86722 35.4693 3.99417 35.4175 4.28128 35.3008C4.9805 35.0179 6.62112 34.3528 8.62698 34.066C11.459 33.6607 12.6719 33.4871 15.791 33.5289C18.9102 33.5704 19.2774 33.7339 22.3379 32.7557C23.4629 32.396 24.3477 31.7325 25.0176 31.0372C26.4102 29.5936 27.2657 27.5982 27.0957 25.6002C27.0293 24.8099 26.8184 23.9039 26.3516 22.9378C25.375 20.9144 21.8125 16.8235 15.8985 20.3216C9.83401 23.251 5.53128 32.1529 4.293 34.7117Z" fill="#FF9900"/>
</svg>
